<?xml version="1.0" encoding="UTF-8" standalone="no"?>
<!-- Created with Inkscape (http://www.inkscape.org/) -->

<svg
   version="1.1"
   id="svg2280"
   width="32"
   height="32"
   viewBox="0 0 32 32"
   sodipodi:docname="footprint1.svg"
   inkscape:export-filename="footprint1.png"
   inkscape:export-xdpi="47.999973"
   inkscape:export-ydpi="47.999973"
   inkscape:version="1.2.2 (b0a8486541, 2022-12-01)"
   xmlns:inkscape="http://www.inkscape.org/namespaces/inkscape"
   xmlns:sodipodi="http://sodipodi.sourceforge.net/DTD/sodipodi-0.dtd"
   xmlns="http://www.w3.org/2000/svg"
   xmlns:svg="http://www.w3.org/2000/svg">
  <defs
     id="defs2284" />
  <sodipodi:namedview
     id="namedview2282"
     pagecolor="#505050"
     bordercolor="#ffffff"
     borderopacity="1"
     inkscape:showpageshadow="0"
     inkscape:pageopacity="0"
     inkscape:pagecheckerboard="1"
     inkscape:deskcolor="#505050"
     showgrid="false"
     inkscape:zoom="0.921875"
     inkscape:cx="70.508475"
     inkscape:cy="306.98305"
     inkscape:window-width="1920"
     inkscape:window-height="1056"
     inkscape:window-x="0"
     inkscape:window-y="0"
     inkscape:window-maximized="1"
     inkscape:current-layer="g2286" />
  <g
     inkscape:groupmode="layer"
     inkscape:label="Image"
     id="g2286">
    <g
       id="g4167"
       transform="scale(0.0625)">
      <path
         style="fill:#19a23c;fill-opacity:1"
         d="M 0,256 V 0 H 256 512 V 256 512 H 256 0 Z"
         id="path2774" />
      <path
         style="fill:#f9faf9;fill-opacity:1"
         d="m 181.54838,500.75 c 6.02339,-6.1875 13.11582,-13.17141 15.76096,-15.5198 l 4.80934,-4.2698 94.23145,0.2698 94.23145,0.2698 4.45921,3.49103 c 2.45257,1.92006 5.324,4.27552 6.38097,5.23435 1.42162,1.28961 2.88942,1.58859 5.63982,1.14878 2.95711,-0.47286 4.14991,-0.16267 5.82823,1.51565 2.68016,2.68016 2.73256,7.48782 0.11019,10.11019 -4.2247,4.2247 -11.96551,1.16825 -12.02993,-4.75 -0.0226,-2.07965 -1.38126,-3.90787 -5.57351,-7.5 L 389.85299,486 h -93.72893 -93.72893 l -12.93349,13 c -10.78156,10.837 -13.42694,13 -15.89919,13 -2.81434,0 -2.40681,-0.5741 7.98593,-11.25 z M 221,511.27616 c -5.83609,-1.05395 -9.00352,-8.05596 -5.64402,-12.47683 1.19059,-1.56675 6.72046,-1.72425 70.21819,-2 45.2514,-0.19652 69.09757,0.0442 69.42583,0.70067 0.32735,0.6547 -15.90185,1.24808 -47,1.71845 -26.125,0.39515 -55.15,0.84515 -64.5,1 l -17,0.28155 0.2962,2.55641 c 0.16291,1.40603 -0.56901,3.65603 -1.62648,5 l -1.92268,2.44359 67.6071,-0.31396 c 37.18391,-0.17267 67.7084,-0.41524 67.8322,-0.53904 0.1238,-0.1238 -0.45727,-2.20566 -1.29127,-4.62635 -1.71999,-4.9923 -1.34881,-7.53845 1.65578,-11.35817 2.62109,-3.33217 6.75084,-3.50101 10.08884,-0.41248 1.33746,1.2375 4.43276,3.825 6.87846,5.75 2.44569,1.925 6.70462,5.6287 9.46428,8.23045 4.9434,4.66053 4.97618,4.73074 2.21756,4.75 -2.06041,0.0144 -5.29897,-2.0936 -12.26062,-7.98045 -5.20333,-4.4 -10.09868,-8 -10.87856,-8 -1.8502,0 -4.56081,2.74059 -4.56081,4.61127 0,2.71919 3.83137,9.00718 6.17538,10.13494 1.73553,0.83501 -16.0477,1.10107 -70.17538,1.04993 -39.875,-0.0377 -73.625,-0.27167 -75,-0.51998 z M 61.430883,505.88817 c -0.44533,-0.72056 -2.402034,-0.88435 -5.560126,-0.46541 -2.969338,0.39389 -5.75151,0.20072 -7.121867,-0.49449 -1.236889,-0.6275 -6.158518,-5.25556 -10.936953,-10.28459 L 29.123874,485.5 14.561937,485.77178 0,486.04355 v -2.59217 -2.59217 l 15.382656,0.3204 15.382656,0.32039 9.34469,9.5 c 8.759164,8.90474 9.596743,9.49839 13.367344,9.47436 3.190152,-0.0203 4.679333,-0.69293 7.195731,-3.25 3.678083,-3.73753 5.58883,-3.97176 10.076923,-1.23532 3.767601,2.29715 4.099859,4.66082 1.17742,8.3761 C 70.326519,506.40036 68.974465,507 65.986437,507 c -2.127622,0 -4.177621,-0.50032 -4.555554,-1.11183 z m 401.023667,-5.34272 c -3.0016,-3.00159 -3.21776,-7.54478 -0.47699,-10.02514 1.50577,-1.3627 2.97957,-1.65527 6.17759,-1.22633 3.82879,0.51355 4.59455,0.21608 8.66323,-3.36532 L 481.28158,482 h 15.35921 C 511.33333,482 512,482.0868 512,484 c 0,1.90171 -0.66667,2 -13.56574,2 -7.80854,0 -14.4229,0.45874 -15.58546,1.08092 -3.7625,2.01363 -7.03633,5.40378 -9.09262,9.4157 -3.56021,6.9461 -7.12667,8.2238 -11.30163,4.04883 z M 81.222506,489.4433 c -2.671147,-1.87095 -3.041195,-7.48175 -0.651077,-9.87187 1.977974,-1.97798 7.434246,-2.03437 9.987441,-0.10323 1.595841,1.20703 7.010724,1.48086 30.44113,1.53941 l 28.5,0.0712 14.20958,-14.78941 C 176.29567,453.18974 178.08792,451.67138 179.3962,453 c 1.30727,1.32759 -0.2323,3.2692 -13.39467,16.89253 l -14.87171,15.39254 -28.31713,-0.20589 -28.317122,-0.20588 -2.934875,3.06335 c -3.280975,3.4246 -6.856065,3.94562 -10.338187,1.50665 z M 422.7329,487.25 c -0.86739,-0.9625 -1.87334,-2.875 -2.23545,-4.25 -0.61707,-2.34319 -9.77337,-10.06787 -15.38336,-12.97812 -1.87515,-0.97276 -21.09484,-1.07869 -89.77995,-0.49483 l -87.39402,0.74289 -43.22006,-43.09885 C 160.94903,403.46672 140.6,383.3953 139.5,382.56792 137.76583,381.26356 128.36199,381.05938 68.75,381.0318 0.67726779,381.00031 0,380.9803 0,379 c 0,-1.98101 0.66666667,-2 70.223817,-2 h 70.223813 l 44.02619,43.95026 44.02618,43.95026 88.5,0.31328 c 72.97088,0.25831 88.93868,0.55564 91,1.6945 1.375,0.75966 4.7058,3.12365 7.40178,5.25329 4.19103,3.31064 5.38631,3.78119 8.24342,3.24519 4.64316,-0.87106 8.04368,0.18876 9.95239,3.10181 1.80742,2.75848 1.32643,6.42453 -1.17052,8.92148 -2.1081,2.10811 -7.72614,2.00375 -9.69417,-0.18007 z m 20.42053,0 c -3.44,-2.91082 -3.75376,-6.74058 -0.79466,-9.69968 2.70971,-2.70971 6.43478,-3.26636 9.80132,-1.46464 1.60699,0.86003 2.47663,0.70042 4.18426,-0.76798 3.40602,-2.92886 7.86859,-5.87553 12.39649,-8.18549 C 472.5846,465.17127 474.4899,465 492.46016,465 511.33333,465 512,465.06824 512,467 c 0,1.92722 -0.66667,2 -18.32069,2 -18.08125,0 -18.38744,0.0359 -23.4286,2.75 -12.30234,6.62333 -15.22172,8.72354 -15.2363,10.96104 -0.0339,5.20391 -7.63677,8.11337 -11.86098,4.53896 z m -258.5805,-7.81993 c -2.70301,-2.70301 -3.03496,-6.334 -0.84721,-9.26712 1.09243,-1.46462 2.76164,-2.8153 3.70935,-3.00151 7.02278,-1.37983 11.11889,7.14175 5.92799,12.33264 -1.964,1.96401 -6.79731,1.92881 -8.79013,-0.064 z M 0,464 c 0,-1.98181 0.66666667,-2 73.305015,-2 h 73.305015 l 10.69499,-10.89315 C 166.07589,442.17345 168,439.67678 168,437.22929 c 0,-3.36703 1.27024,-4.75704 5.26288,-5.75913 4.14177,-1.03952 7.73712,1.70117 7.73712,5.89791 0,4.34333 -2.61083,6.63193 -7.56568,6.63193 -3.67223,0 -4.54297,0.66567 -14.42126,11.02492 L 148.5,466.04984 74.25,466.02492 C 0.67497416,466.00023 0,465.98182 0,464 Z m 217.5,-29.56557 c -11,-10.71581 -31.06439,-30.4973 -44.58753,-43.95886 L 148.32495,366 H 74.162474 C 0.66666667,366 0,365.98202 0,364 c 0,-1.98217 0.66666667,-2 74.796374,-2 h 74.796376 l 18.02921,17.75 c 51.74938,50.94795 70.04516,68.55314 72.02421,69.30557 1.2016,0.45685 50.03527,0.69689 108.51928,0.53343 C 470.52189,449.24702 512,449.73067 512,451.49938 c 0,1.82451 -46.38609,2.50598 -167.41289,2.45948 L 237.5,453.91771 Z M 0,446.4878 v -2.5122 l 69.851684,0.0378 69.851686,0.0378 7.63242,-7.77561 c 4.99379,-5.08747 7.63792,-8.56917 7.64832,-10.07105 0.0208,-3.00609 4.2839,-7.20455 7.31545,-7.20455 5.50594,0 7.69631,7.77635 3.34246,11.86658 -1.71099,1.60739 -3.37695,2.14658 -6.07173,1.96509 -3.47563,-0.23407 -4.20606,0.27787 -11.39202,7.98432 L 140.5,449.05041 70.25,449.0252 0,449 Z M 365.27942,434.14553 360.05884,430 321.27942,429.96218 282.5,429.92437 268.88325,416.71218 C 241.37148,390.01783 242.53093,391 238.53018,391 c -2.8281,0 -4.30133,-0.72087 -6.58655,-3.22286 -1.619,-1.77257 -2.94363,-3.5173 -2.94363,-3.87716 0,-0.35987 -1.99079,-0.42991 -4.42397,-0.15566 -3.7874,0.4269 -4.79464,0.12798 -7,-2.07738 C 212.92679,377.0177 215.22795,370 221.40172,370 c 3.77112,0 6.12722,2.14481 7.14031,6.5 0.97671,4.1988 2.90971,5.52672 6.25568,4.29752 3.82743,-1.40608 7.96372,0.40375 8.83233,3.8646 0.37725,1.50307 1.85232,3.72904 3.27793,4.94659 1.42562,1.21756 10.13097,9.67869 19.34524,18.80252 L 283.00642,425 h 39.01913 39.01914 l 4.52418,4.17024 4.52418,4.17025 70.95347,-0.24715 L 512,432.84619 v 2.0769 C 512,436.98753 511.78183,437 475.66339,437 c -19.98513,0 -51.82263,0.29049 -70.75,0.64553 L 370.5,438.29107 Z M 240.26443,387.40223 C 241.49564,386.17102 239.701,384 237.45203,384 c -2.81995,0 -4.23986,1.8869 -2.33015,3.09649 1.59761,1.01191 4.27708,1.17121 5.14255,0.30574 z M 0,428.5 v -2.51816 l 51.25,0.25908 c 50.49697,0.25527 51.25,0.28847 51.25,2.25908 0,1.97061 -0.75303,2.00381 -51.25,2.25908 L 0,431.01816 Z m 234.65499,-3.32874 C 233.74474,424.16545 233,421.77282 233,419.8543 c 0,-3.24479 -2.16553,-5.6469 -31.03114,-34.42126 -27.18754,-27.1016 -31.61562,-31.11883 -35.75,-32.43304 -4.47683,-1.42307 -4.73542,-1.70311 -5.04175,-5.46012 -0.38857,-4.76559 1.47231,-6.53988 6.85903,-6.53988 4.92372,0 7.42134,2.74788 6.57896,7.23818 -0.61014,3.25232 -0.0172,3.92276 29.88371,33.78999 16.77842,16.75951 31.29258,30.60185 32.2537,30.76076 4.87648,0.8063 6.46364,1.42722 8.27293,3.23651 2.47629,2.47629 2.54933,7.14443 0.14582,9.31957 -2.47142,2.2366 -8.42394,2.13825 -10.51627,-0.17375 z m 134.18232,-7.17744 c -1.2591,-1.70303 -3.76466,-3.43458 -5.77994,-3.99443 -2.02808,-0.5634 -18.6036,-0.99268 -38.55737,-0.99858 l -35,-0.0104 -12,-12.07076 c -6.6,-6.63892 -14.60174,-14.34363 -17.78164,-17.12158 -5.41386,-4.72954 -5.89596,-4.94737 -7.57874,-3.42447 -2.09926,1.8998 -8.2043,2.16167 -9.93962,0.42635 -3.38189,-3.38189 0.51157,-11.8 5.45762,-11.8 2.24633,0 10.05834,6.87849 30.38042,26.75 l 13.55043,13.25 h 35.77151 c 38.12086,0 37.40112,-0.0867 43.53463,5.24306 l 3.3946,2.94977 68.85555,-0.34642 68.85554,-0.34641 -1.5e-4,2.25 L 512,421 H 441.52994 371.05987 Z M 92.25,416.77951 C 91.0125,416.18268 90,415.31314 90,414.84719 90,414.38123 69.75,414 45,414 H 0 v -2.31716 -2.31716 l 43.75,0.42559 43.75,0.42558 2.937091,-3.10842 C 95.683485,401.55598 103,403.8224 103,411 c 0,5.94024 -4.925727,8.58845 -10.75,5.77951 z M 398,408.33524 c -0.825,-0.34829 -4.33989,-3.27642 -7.81086,-6.50695 l -6.31086,-5.8737 -38.68914,0.36107 c -21.27903,0.19859 -40.05604,0.69585 -41.7267,1.10503 -6.60136,1.61679 -10.83729,-7.26948 -5.51832,-11.57652 4.34356,-3.51721 10.33159,-1.38539 12.37548,4.40583 0.57344,1.62479 3.31465,1.75 38.31408,1.75 h 37.69646 l 6.24838,6 6.24837,6 h 56.58656 C 511.33333,404 512,404.0236 512,406 c 0,1.9731 -0.66904,2.0001 -49.75,2.00711 -27.3625,0.004 -52.675,0.22182 -56.25,0.48425 -3.575,0.26243 -7.175,0.19217 -8,-0.15612 z M 116.71351,398.58127 C 115.23905,397.46284 104.89034,397.32 57.463511,397.76346 L 0,398.30077 V 395.65039 393 h 57.031385 c 53.412515,0 57.070765,-0.11104 57.651995,-1.75 1.81437,-5.11612 6.72756,-6.75175 11.09411,-3.6933 3.07516,2.15393 3.06006,7.92401 -0.0275,10.49974 -2.64452,2.20615 -6.52301,2.43141 -9.03649,0.52483 z m 304.30093,-6.28371 C 419.74662,391.40954 419,389.76023 419,387.84759 c 0,-3.93538 -2.37481,-7.88053 -6.40681,-10.6433 C 409.38216,375.00406 409.28402,375 359.28706,375 h -50.08917 l -5.21889,-6.02424 -5.21888,-6.02423 -35.63006,0.40963 c -19.59653,0.2253 -37.67425,0.7241 -40.17271,1.10844 -4.35914,0.67057 -4.71661,0.52999 -8.84864,-3.48001 -2.3683,-2.29835 -5.45983,-6.69913 -6.87007,-9.77951 -3.9641,-8.65873 -3.99789,-16.06378 -0.19492,-42.70846 3.12587,-21.90067 3.22297,-23.47944 2.1043,-34.2114 -0.64504,-6.18815 -2.48568,-16.32247 -4.09031,-22.5207 -2.85792,-11.03932 -5.12455,-17.94014 -16.51147,-50.26952 -9.97841,-28.33037 -11.02455,-33.38423 -10.97092,-53 0.0411,-15.01913 0.30492,-17.69801 2.26442,-22.99038 7.46808,-20.17035 24.41073,-35.724811 44.62036,-40.964394 8.72045,-2.260881 26.8865,-2.036567 37.5399,0.463542 19.0946,4.481066 39.58527,15.861382 54.00028,29.991232 13.80095,13.52793 19.6833,22.79909 24.10816,37.99682 3.19086,10.95944 2.12654,26.56203 -2.55827,37.50318 -0.7065,1.65 -2.53905,6.15 -4.07233,10 -4.34227,10.90328 -13.15704,27.79257 -19.72878,37.80078 -16.55585,25.21316 -18.26855,34.31542 -12.64436,67.19922 2.79675,16.35215 3.05918,38.3148 0.54965,46 -2.07135,6.34332 -2.11773,5.90144 0.96548,9.19848 1.4409,1.54084 3.74431,4.26402 5.11869,6.05152 l 2.49886,3.25 h 49.41343 c 55.12347,0 53.67174,-0.16837 59.24723,6.87126 2.6087,3.29376 3.91585,4.12874 6.46348,4.12874 4.21245,0 7.63848,2.49231 7.63848,5.5567 V 389 h 33.35331 c 39.3734,0 45.64669,0.43888 45.64669,3.19346 0,1.85241 -1.30848,1.90276 -44.48556,1.71181 -36.43927,-0.16116 -44.84993,-0.45195 -46.5,-1.60771 z M 241.33657,354.93287 c -0.45059,-2.25298 -0.0458,-3.8349 1.525,-5.95951 C 244.97135,346.11973 245,345.48023 245,301.23709 V 256.3932 l -14,-14.07655 -14,-14.07654 v -30.61234 -30.61234 l -3,-2.67301 c -4.97347,-4.43139 -3.25187,-11.3699 3.19968,-12.89556 2.08546,-0.49317 3.2799,-0.0582 5.25,1.91191 3.06572,3.06572 3.255,6.47566 0.55032,9.9141 -1.89969,2.41507 -1.99893,4.03932 -1.97872,32.38486 l 0.0213,29.84227 14.61454,14.94618 14.61454,14.94619 -0.47447,45.26377 -0.47447,45.26377 2.33866,2.03343 c 1.72842,1.50284 2.33865,3.0852 2.33865,6.06423 v 4.03079 l 16.65179,-0.27418 16.65178,-0.27418 2.29662,-6 c 3.35206,-8.75737 3.15834,-20.77979 -0.78663,-48.81845 l -3.2105,-22.81845 1.94847,-10.18155 c 1.65515,-8.64885 1.98992,-15.42955 2.22382,-45.04339 l 0.27534,-34.86184 -2.52534,-2.34041 C 282.66658,182.93296 285.19191,175 291.48412,175 c 2.45037,0 3.93662,0.71943 5.4433,2.63486 2.69642,3.42795 2.61357,5.24331 -0.42742,9.36514 l -2.5,3.38856 v 27.13905 c 0,14.92648 0.28978,27.42884 0.64396,27.78301 0.61554,0.61554 4.88315,-5.43706 12.20549,-17.31062 11.15871,-18.09441 22.54683,-45.74953 23.7587,-57.69606 1.65752,-16.33976 -9.39107,-37.03555 -27.76308,-52.00473 C 279.81387,99.53382 251.77523,90.818749 229.5,95.501833 c -11.3972,2.396116 -17.91818,5.859417 -25.6702,13.633447 -14.24114,14.2816 -19.11818,34.63773 -13.86357,57.86472 1.99059,8.79902 8.76911,29.80211 18.5575,57.5 8.63572,24.43623 10.50076,33.63467 11.15159,55 0.49198,16.15089 0.2692,19.89317 -2.16861,36.42889 -3.03694,20.59964 -2.85949,26.04634 1.06769,32.77262 3.58268,6.13625 9.38195,9.27722 17.1506,9.28903 l 6.225,0.009 -0.61343,-3.06713 z m 22.72239,-6.87391 c -2.40222,-2.40222 -2.61354,-5.47232 -0.63739,-9.26022 1.15451,-2.21298 1.5415,-15.96942 2.14087,-76.10297 l 0.73163,-73.4017 -2.25961,-2.25961 c -1.81903,-1.81903 -2.14462,-2.9682 -1.66987,-5.89375 0.32436,-1.99878 1.36103,-4.19813 2.30371,-4.88743 2.36965,-1.73274 6.87293,-1.56919 8.76027,0.31815 2.3584,2.3584 1.99529,8.34855 -0.67857,11.19432 l -2.25,2.39465 -0.2692,72.4006 c -0.26465,71.17608 -0.23548,72.43432 1.72456,74.39436 4.79751,4.79751 3.23983,12.27501 -2.6776,12.8536 -2.15768,0.21097 -3.81285,-0.34405 -5.2188,-1.75 z M 453.47784,374.75 c -2.18781,-1.7875 -5.00507,-4.45746 -6.26057,-5.93325 -1.2555,-1.47579 -3.9555,-3.22018 -6,-3.87643 C 435.94466,363.24791 434,361.21667 434,357.40172 c 0,-2.26443 0.69202,-3.77302 2.22251,-4.84502 2.33836,-1.63785 6.5187,-2.03273 8.37779,-0.79139 2.04779,1.36735 3.60358,5.46522 3.07784,8.10686 -0.55482,2.78778 2.00098,6.38711 7.7241,10.87783 2.81184,2.20634 3.38876,2.25 29.73262,2.25 L 512,373 v 2.5 2.5 h -27.27216 -27.27215 z m 8.20268,-12.78666 c -3.58784,-2.8222 -3.38783,-7.36836 0.44964,-10.22025 3.77405,-2.80474 8.43042,-1.60218 11.06122,2.8567 L 475.19755,358 h 18.40123 C 511.15622,358 512,358.0891 512,359.94387 c 0,1.84886 -1.01418,1.96493 -20.75,2.37479 -11.4125,0.237 -22.10664,0.7478 -23.76475,1.1351 -2.31096,0.53979 -3.66605,0.19186 -5.80473,-1.49042 z M 320.61636,113.99712 C 317.72187,110.79326 317,109.18995 317,105.965 317,95.959564 325.48047,86 334,86 c 6.88749,0 12,5.284323 12,12.403287 C 346,107.72129 336.49688,118 327.88196,118 c -2.98892,0 -4.3036,-0.72431 -7.2656,-4.00288 z M 294.14348,93.467274 c -1.65549,-1.392999 -3.52799,-4.102329 -4.16112,-6.020734 -2.21676,-6.71685 1.70614,-19.209835 7.67871,-24.453819 C 300.57312,60.43591 301.8802,60 306.6348,60 c 4.99572,0 5.91312,0.347919 8.9652,3.4 3.12739,3.12739 3.4,3.89167 3.4,9.532119 0,7.212108 -1.51074,11.302118 -6.10928,16.539564 -5.96063,6.788785 -13.51442,8.39872 -18.74724,3.995591 z M 183.99353,84.065659 C 176.28574,81.721057 166.88587,72.850044 165.03032,66.169362 160.15004,48.598535 171.92608,32 189.2722,32 c 16.77478,0 28.11438,10.727201 28.01283,26.5 -0.047,7.305873 -1.8762,11.931989 -6.93786,17.546483 -6.69885,7.430498 -17.49202,10.714761 -26.35364,8.019176 z m 12.28859,-11.442498 c 1.76983,-0.757261 4.56788,-2.81181 6.21788,-4.565663 2.66618,-2.833995 3,-3.876969 3,-9.373161 0,-4.925554 -0.48823,-6.868883 -2.39866,-9.547476 -6.29714,-8.829177 -20.5473,-7.805156 -25.98345,1.867179 -6.95583,12.376214 6.16714,27.180201 19.16423,21.619121 z m 67.13784,5.491161 c -6.2187,-3.792158 -7.7584,-11.897269 -4.43007,-23.320319 1.44755,-4.968068 8.05128,-11.523499 12.43729,-12.34632 4.35153,-0.816351 9.59969,0.887566 12.61295,4.095034 5.46156,5.813565 2.71825,21.86918 -5.07588,29.707283 -3.17595,3.193871 -4.37668,3.749446 -8.0966,3.746262 -2.50733,-0.0021 -5.67953,-0.803722 -7.44769,-1.88194 z m -30.41945,-5.237775 c -13.34789,-5.322529 -14.85609,-29.188561 -2.30922,-36.541521 13.22139,-7.748248 24.87224,5.895029 19.83403,23.225866 -3.37593,11.612814 -9.71543,16.429675 -17.52481,13.315655 z"
         id="path2772" />
    </g>
  </g>
</svg>
