<?xml version="1.0" encoding="UTF-8" standalone="no"?>
<!-- Created with Inkscape (http://www.inkscape.org/) -->

<svg
   width="256"
   height="256"
   viewBox="0 0 67.733332 67.733333"
   version="1.1"
   id="svg5"
   xml:space="preserve"
   xmlns="http://www.w3.org/2000/svg"
   xmlns:svg="http://www.w3.org/2000/svg"><defs
     id="defs2" /><g
     id="layer1"><g
       id="g4745"
       transform="translate(0.64527612,0.8412128)"><path
         style="fill:#e6e6e6;fill-opacity:1;stroke-width:2.11667"
         d="M 5.1954579,62.537877 C -2.1530005,55.189418 -2.7287898,14.623333 4.3869646,5.5771173 10.95399,-2.7715031 54.286517,-3.0559081 62.53788,5.1954544 c 7.941981,7.9419816 7.941981,49.4004396 0,57.3424226 -7.941982,7.94198 -49.400441,7.94198 -57.3424221,0 z m 25.4962111,-5.38788 c 0.719495,-1.164166 -0.176793,-2.116666 -1.991748,-2.116666 -1.814954,0 -3.299919,-1.462261 -3.299919,-3.249471 0,-1.787209 -1.451512,-5.464759 -3.225584,-8.172333 -2.156977,-3.291965 -2.912446,-8.12053 -2.280381,-14.575017 0.945201,-9.652152 0.945201,-9.652152 -5.07138,-7.55476 -9.5083163,3.314616 -10.0945491,16.035134 -0.901564,19.562813 3.424859,1.314242 3.409732,1.589756 -0.233548,4.253788 -3.7452419,2.738588 -3.727709,2.901815 0.454277,4.229126 2.39243,0.759326 6.051867,3.261279 8.132084,5.55989 4.214059,4.656484 6.472637,5.20991 8.417763,2.06263 z M 49.092478,53.30644 c 1.52122,-2.113957 4.432731,-4.465312 6.470023,-5.225235 2.936199,-1.095223 3.704166,-3.89683 3.704166,-13.513108 0,-9.435558 -0.564445,-11.566986 -2.54,-9.591432 -3.456952,3.456953 -5.926666,3.19234 -5.926666,-0.635 0,-1.746249 1.190625,-3.189585 2.645833,-3.207411 3.501547,-0.04289 -2.715281,-4.123983 -6.349999,-4.168509 -4.931992,-0.06042 -2.892641,9.703485 2.645833,12.667587 8.35254,4.470144 3.265424,19.181795 -5.514725,15.948268 -5.41561,-1.994446 -8.974099,2.0151 -6.271004,7.065879 2.952557,5.516907 7.44925,5.782981 11.136539,0.658961 z M 42.256383,18.084386 C 47.111991,12.233738 35.514261,6.9099945 24.134913,9.7660288 13.185372,12.514189 19.90519,17.788972 38.369993,20.939987 c 0.73058,0.124674 2.479455,-1.160347 3.88639,-2.855601 z"
         id="path4779" /><path
         style="fill:#dbdbdb;fill-opacity:1;stroke-width:2.11667"
         d="M 5.1954579,62.537877 C -2.1530005,55.189418 -2.7287898,14.623333 4.3869646,5.5771173 10.95399,-2.7715031 54.286517,-3.0559081 62.53788,5.1954544 c 7.941981,7.9419816 7.941981,49.4004396 0,57.3424226 -7.941982,7.94198 -49.400441,7.94198 -57.3424221,0 z m 25.4962111,-5.38788 c 0.719495,-1.164166 -0.176793,-2.116666 -1.991748,-2.116666 -1.814954,0 -3.299919,-1.462261 -3.299919,-3.249471 0,-1.787209 -1.451512,-5.464759 -3.225584,-8.172333 -2.156977,-3.291965 -2.912446,-8.12053 -2.280381,-14.575017 0.945201,-9.652152 0.945201,-9.652152 -5.07138,-7.55476 -9.5083163,3.314616 -10.0945491,16.035134 -0.901564,19.562813 3.424859,1.314242 3.409732,1.589756 -0.233548,4.253788 -3.7452419,2.738588 -3.727709,2.901815 0.454277,4.229126 2.39243,0.759326 6.051867,3.261279 8.132084,5.55989 4.214059,4.656484 6.472637,5.20991 8.417763,2.06263 z M 49.092478,53.30644 c 1.52122,-2.113957 4.432731,-4.465312 6.470023,-5.225235 2.936199,-1.095223 3.704166,-3.89683 3.704166,-13.513108 0,-9.435558 -0.564445,-11.566986 -2.54,-9.591432 -3.456952,3.456953 -5.926666,3.19234 -5.926666,-0.635 0,-1.746249 1.190625,-3.189585 2.645833,-3.207411 3.501547,-0.04289 -2.715281,-4.123983 -6.349999,-4.168509 -4.931992,-0.06042 -2.892641,9.703485 2.645833,12.667587 8.35254,4.470144 3.265424,19.181795 -5.514725,15.948268 -5.41561,-1.994446 -8.974099,2.0151 -6.271004,7.065879 2.952557,5.516907 7.44925,5.782981 11.136539,0.658961 z M 42.256383,18.084386 C 47.111991,12.233738 35.514261,6.9099945 24.134913,9.7660288 13.185372,12.514189 19.90519,17.788972 38.369993,20.939987 c 0.73058,0.124674 2.479455,-1.160347 3.88639,-2.855601 z"
         id="path4777" /><path
         style="fill:#cfcfcf;fill-opacity:1;stroke-width:2.11667"
         d="M 5.1954579,62.537877 C -2.1530005,55.189418 -2.7287898,14.623333 4.3869646,5.5771173 10.95399,-2.7715031 54.286517,-3.0559081 62.53788,5.1954544 c 7.941981,7.9419816 7.941981,49.4004396 0,57.3424226 -7.941982,7.94198 -49.400441,7.94198 -57.3424221,0 z m 25.4962111,-5.38788 c 0.719495,-1.164166 -0.176793,-2.116666 -1.991748,-2.116666 -1.814954,0 -3.299919,-1.462261 -3.299919,-3.249471 0,-1.787209 -1.451512,-5.464759 -3.225584,-8.172333 -2.156977,-3.291965 -2.912446,-8.12053 -2.280381,-14.575017 0.945201,-9.652152 0.945201,-9.652152 -5.07138,-7.55476 -9.5083163,3.314616 -10.0945491,16.035134 -0.901564,19.562813 3.424859,1.314242 3.409732,1.589756 -0.233548,4.253788 -3.7452419,2.738588 -3.727709,2.901815 0.454277,4.229126 2.39243,0.759326 6.051867,3.261279 8.132084,5.55989 4.214059,4.656484 6.472637,5.20991 8.417763,2.06263 z M 49.092478,53.30644 c 1.52122,-2.113957 4.432731,-4.465312 6.470023,-5.225235 2.936199,-1.095223 3.704166,-3.89683 3.704166,-13.513108 0,-9.435558 -0.564445,-11.566986 -2.54,-9.591432 -3.456952,3.456953 -5.926666,3.19234 -5.926666,-0.635 0,-1.746249 1.190625,-3.189585 2.645833,-3.207411 3.501547,-0.04289 -2.715281,-4.123983 -6.349999,-4.168509 -4.931992,-0.06042 -2.892641,9.703485 2.645833,12.667587 8.35254,4.470144 3.265424,19.181795 -5.514725,15.948268 -5.41561,-1.994446 -8.974099,2.0151 -6.271004,7.065879 2.952557,5.516907 7.44925,5.782981 11.136539,0.658961 z M 42.256383,18.084386 C 47.111991,12.233738 35.514261,6.9099945 24.134913,9.7660288 13.185372,12.514189 19.90519,17.788972 38.369993,20.939987 c 0.73058,0.124674 2.479455,-1.160347 3.88639,-2.855601 z"
         id="path4775" /><path
         style="fill:#c4c4c4;fill-opacity:1;stroke-width:2.11667"
         d="M 5.1954579,62.537877 C -2.1530005,55.189418 -2.7287898,14.623333 4.3869646,5.5771173 10.95399,-2.7715031 54.286517,-3.0559081 62.53788,5.1954544 c 7.941981,7.9419816 7.941981,49.4004396 0,57.3424226 -7.941982,7.94198 -49.400441,7.94198 -57.3424221,0 z m 25.4962111,-5.38788 c 0.719495,-1.164166 -0.176793,-2.116666 -1.991748,-2.116666 -1.814954,0 -3.299919,-1.462261 -3.299919,-3.249471 0,-1.787209 -1.451512,-5.464759 -3.225584,-8.172333 -2.156977,-3.291965 -2.912446,-8.12053 -2.280381,-14.575017 0.945201,-9.652152 0.945201,-9.652152 -5.07138,-7.55476 -9.5083163,3.314616 -10.0945491,16.035134 -0.901564,19.562813 3.424859,1.314242 3.409732,1.589756 -0.233548,4.253788 -3.7452419,2.738588 -3.727709,2.901815 0.454277,4.229126 2.39243,0.759326 6.051867,3.261279 8.132084,5.55989 4.214059,4.656484 6.472637,5.20991 8.417763,2.06263 z M 49.092478,53.30644 c 1.52122,-2.113957 4.432731,-4.465312 6.470023,-5.225235 2.936199,-1.095223 3.704166,-3.89683 3.704166,-13.513108 0,-9.435558 -0.564445,-11.566986 -2.54,-9.591432 -3.456952,3.456953 -5.926666,3.19234 -5.926666,-0.635 0,-1.746249 1.190625,-3.189585 2.645833,-3.207411 3.501547,-0.04289 -2.715281,-4.123983 -6.349999,-4.168509 -4.931992,-0.06042 -2.892641,9.703485 2.645833,12.667587 8.35254,4.470144 3.265424,19.181795 -5.514725,15.948268 -5.41561,-1.994446 -8.974099,2.0151 -6.271004,7.065879 2.952557,5.516907 7.44925,5.782981 11.136539,0.658961 z M 42.256383,18.084386 C 47.111991,12.233738 35.514261,6.9099945 24.134913,9.7660288 13.185372,12.514189 19.90519,17.788972 38.369993,20.939987 c 0.73058,0.124674 2.479455,-1.160347 3.88639,-2.855601 z"
         id="path4773" /><path
         style="fill:#b9b9b9;fill-opacity:1;stroke-width:2.11667"
         d="M 5.1954579,62.537877 C -2.1530005,55.189418 -2.7287898,14.623333 4.3869646,5.5771173 10.95399,-2.7715031 54.286517,-3.0559081 62.53788,5.1954544 c 7.941981,7.9419816 7.941981,49.4004396 0,57.3424226 -7.941982,7.94198 -49.400441,7.94198 -57.3424221,0 z M 31.750002,59.194028 c 2.775758,-1.857334 2.709219,-2.481463 -0.529167,-4.963435 -2.037291,-1.561424 -3.704166,-3.61145 -3.704166,-4.555608 0,-0.944158 -1.584543,-3.467553 -3.521206,-5.607541 -3.178919,-3.512665 -3.588422,-7.795738 -2.296744,-24.022065 0.09582,-1.203848 3.324536,-1.811756 7.212084,-1.357906 3.871218,0.451943 6.513753,1.670897 5.872302,2.708787 -1.964495,3.17862 1.692008,2.098133 5.954775,-1.759619 3.880561,-3.511858 3.977486,-3.439259 2.621473,1.963526 -1.200457,4.783004 -0.443615,6.108958 5.132954,8.992713 9.943838,5.142158 5.975276,13.857118 -6.310164,13.857118 -5.596805,0 -6.198808,0.675722 -6.198808,6.957898 0,9.493364 6.639069,9.856336 15.818963,0.864855 11.284178,-11.052573 13.113067,-31.06752 2.53196,-27.709208 -4.027802,1.278376 -4.22505,1.044236 -1.691771,-2.008177 2.462266,-2.966847 2.310316,-3.664676 -1.074932,-4.936648 -2.168404,-0.814755 -5.001416,-2.893961 -6.29558,-4.620456 C 42.718714,9.5920551 37.64436,7.968956 30.162502,8.1652978 20.733651,8.4127336 19.212282,9.2592527 17.961464,14.954191 c -0.713121,3.246815 -3.06838,6.252272 -5.371681,6.854599 -7.3702865,1.927373 -7.6313813,20.500316 -0.266214,18.937041 3.182003,-0.675388 3.255345,2.983234 0.09891,4.93402 -1.52206,0.940685 0.598295,4.041392 5.820833,8.512111 9.273058,7.938143 9.17374,7.901362 13.506692,5.002066 z"
         id="path4771" /><path
         style="fill:#aeaeae;fill-opacity:1;stroke-width:2.11667"
         d="M 5.1954579,62.537877 C -2.1530005,55.189418 -2.7287898,14.623333 4.3869646,5.5771173 10.95399,-2.7715031 54.286517,-3.0559081 62.53788,5.1954544 c 7.941981,7.9419816 7.941981,49.4004396 0,57.3424226 -7.941982,7.94198 -49.400441,7.94198 -57.3424221,0 z M 31.750002,59.194028 c 2.775758,-1.857334 2.709219,-2.481463 -0.529167,-4.963435 -2.037291,-1.561424 -3.704166,-3.61145 -3.704166,-4.555608 0,-0.944158 -1.584543,-3.467553 -3.521206,-5.607541 -3.178919,-3.512665 -3.588422,-7.795738 -2.296744,-24.022065 0.09582,-1.203848 3.324536,-1.811756 7.212084,-1.357906 3.871218,0.451943 6.513753,1.670897 5.872302,2.708787 -1.964495,3.17862 1.692008,2.098133 5.954775,-1.759619 3.880561,-3.511858 3.977486,-3.439259 2.621473,1.963526 -1.200457,4.783004 -0.443615,6.108958 5.132954,8.992713 9.943838,5.142158 5.975276,13.857118 -6.310164,13.857118 -5.596805,0 -6.198808,0.675722 -6.198808,6.957898 0,9.493364 6.639069,9.856336 15.818963,0.864855 11.284178,-11.052573 13.113067,-31.06752 2.53196,-27.709208 -4.027802,1.278376 -4.22505,1.044236 -1.691771,-2.008177 2.462266,-2.966847 2.310316,-3.664676 -1.074932,-4.936648 -2.168404,-0.814755 -5.001416,-2.893961 -6.29558,-4.620456 C 42.718714,9.5920551 37.64436,7.968956 30.162502,8.1652978 20.733651,8.4127336 19.212282,9.2592527 17.961464,14.954191 c -0.713121,3.246815 -3.06838,6.252272 -5.371681,6.854599 -7.3702865,1.927373 -7.6313813,20.500316 -0.266214,18.937041 3.182003,-0.675388 3.255345,2.983234 0.09891,4.93402 -1.52206,0.940685 0.598295,4.041392 5.820833,8.512111 9.273058,7.938143 9.17374,7.901362 13.506692,5.002066 z"
         id="path4769" /><path
         style="fill:#a3a3a3;fill-opacity:1;stroke-width:2.11667"
         d="M 5.1954579,62.537877 C -2.1530005,55.189418 -2.7287898,14.623333 4.3869646,5.5771173 10.95399,-2.7715031 54.286517,-3.0559081 62.53788,5.1954544 c 7.941981,7.9419816 7.941981,49.4004396 0,57.3424226 -7.941982,7.94198 -49.400441,7.94198 -57.3424221,0 z M 31.750002,59.194028 c 2.775758,-1.857334 2.709219,-2.481463 -0.529167,-4.963435 -2.037291,-1.561424 -3.704166,-3.61145 -3.704166,-4.555608 0,-0.944158 -1.584543,-3.467553 -3.521206,-5.607541 -3.178919,-3.512665 -3.588422,-7.795738 -2.296744,-24.022065 0.09582,-1.203848 3.324536,-1.811756 7.212084,-1.357906 3.871218,0.451943 6.513753,1.670897 5.872302,2.708787 -1.964495,3.17862 1.692008,2.098133 5.954775,-1.759619 3.880561,-3.511858 3.977486,-3.439259 2.621473,1.963526 -1.200457,4.783004 -0.443615,6.108958 5.132954,8.992713 9.943838,5.142158 5.975276,13.857118 -6.310164,13.857118 -5.596805,0 -6.198808,0.675722 -6.198808,6.957898 0,9.493364 6.639069,9.856336 15.818963,0.864855 11.284178,-11.052573 13.113067,-31.06752 2.53196,-27.709208 -4.027802,1.278376 -4.22505,1.044236 -1.691771,-2.008177 2.462266,-2.966847 2.310316,-3.664676 -1.074932,-4.936648 -2.168404,-0.814755 -5.001416,-2.893961 -6.29558,-4.620456 C 42.718714,9.5920551 37.64436,7.968956 30.162502,8.1652978 20.733651,8.4127336 19.212282,9.2592527 17.961464,14.954191 c -0.713121,3.246815 -3.06838,6.252272 -5.371681,6.854599 -7.3702865,1.927373 -7.6313813,20.500316 -0.266214,18.937041 3.182003,-0.675388 3.255345,2.983234 0.09891,4.93402 -1.52206,0.940685 0.598295,4.041392 5.820833,8.512111 9.273058,7.938143 9.17374,7.901362 13.506692,5.002066 z"
         id="path4767" /><path
         style="fill:#989898;fill-opacity:1;stroke-width:2.11667"
         d="M 5.1954579,62.537877 C -2.1530005,55.189418 -2.7287898,14.623333 4.3869646,5.5771173 10.95399,-2.7715031 54.286517,-3.0559081 62.53788,5.1954544 c 7.941981,7.9419816 7.941981,49.4004396 0,57.3424226 -7.941982,7.94198 -49.400441,7.94198 -57.3424221,0 z M 31.750002,59.194028 c 2.775758,-1.857334 2.709219,-2.481463 -0.529167,-4.963435 -2.037291,-1.561424 -3.704166,-3.61145 -3.704166,-4.555608 0,-0.944158 -1.584543,-3.467553 -3.521206,-5.607541 -3.178919,-3.512665 -3.588422,-7.795738 -2.296744,-24.022065 0.09582,-1.203848 3.324536,-1.811756 7.212084,-1.357906 3.871218,0.451943 6.513753,1.670897 5.872302,2.708787 -1.964495,3.17862 1.692008,2.098133 5.954775,-1.759619 3.880561,-3.511858 3.977486,-3.439259 2.621473,1.963526 -1.200457,4.783004 -0.443615,6.108958 5.132954,8.992713 9.943838,5.142158 5.975276,13.857118 -6.310164,13.857118 -5.596805,0 -6.198808,0.675722 -6.198808,6.957898 0,9.493364 6.639069,9.856336 15.818963,0.864855 11.284178,-11.052573 13.113067,-31.06752 2.53196,-27.709208 -4.027802,1.278376 -4.22505,1.044236 -1.691771,-2.008177 2.462266,-2.966847 2.310316,-3.664676 -1.074932,-4.936648 -2.168404,-0.814755 -5.001416,-2.893961 -6.29558,-4.620456 C 42.718714,9.5920551 37.64436,7.968956 30.162502,8.1652978 20.733651,8.4127336 19.212282,9.2592527 17.961464,14.954191 c -0.713121,3.246815 -3.06838,6.252272 -5.371681,6.854599 -7.3702865,1.927373 -7.6313813,20.500316 -0.266214,18.937041 3.182003,-0.675388 3.255345,2.983234 0.09891,4.93402 -1.52206,0.940685 0.598295,4.041392 5.820833,8.512111 9.273058,7.938143 9.17374,7.901362 13.506692,5.002066 z"
         id="path4765" /><path
         style="fill:#8c8c8c;fill-opacity:1;stroke-width:2.11667"
         d="M 5.1954579,62.537877 C -2.1530005,55.189418 -2.7287898,14.623333 4.3869646,5.5771173 10.95399,-2.7715031 54.286517,-3.0559081 62.53788,5.1954544 c 7.941981,7.9419816 7.941981,49.4004396 0,57.3424226 -7.941982,7.94198 -49.400441,7.94198 -57.3424221,0 z M 31.750002,59.194028 c 2.775758,-1.857334 2.709219,-2.481463 -0.529167,-4.963435 -2.037291,-1.561424 -3.704166,-3.61145 -3.704166,-4.555608 0,-0.944158 -1.584543,-3.467553 -3.521206,-5.607541 -3.178919,-3.512665 -3.588422,-7.795738 -2.296744,-24.022065 0.09582,-1.203848 3.324536,-1.811756 7.212084,-1.357906 3.871218,0.451943 6.513753,1.670897 5.872302,2.708787 -1.964495,3.17862 1.692008,2.098133 5.954775,-1.759619 3.880561,-3.511858 3.977486,-3.439259 2.621473,1.963526 -1.200457,4.783004 -0.443615,6.108958 5.132954,8.992713 9.943838,5.142158 5.975276,13.857118 -6.310164,13.857118 -5.596805,0 -6.198808,0.675722 -6.198808,6.957898 0,9.493364 6.639069,9.856336 15.818963,0.864855 11.284178,-11.052573 13.113067,-31.06752 2.53196,-27.709208 -4.027802,1.278376 -4.22505,1.044236 -1.691771,-2.008177 2.462266,-2.966847 2.310316,-3.664676 -1.074932,-4.936648 -2.168404,-0.814755 -5.001416,-2.893961 -6.29558,-4.620456 C 42.718714,9.5920551 37.64436,7.968956 30.162502,8.1652978 20.733651,8.4127336 19.212282,9.2592527 17.961464,14.954191 c -0.713121,3.246815 -3.06838,6.252272 -5.371681,6.854599 -7.3702865,1.927373 -7.6313813,20.500316 -0.266214,18.937041 3.182003,-0.675388 3.255345,2.983234 0.09891,4.93402 -1.52206,0.940685 0.598295,4.041392 5.820833,8.512111 9.273058,7.938143 9.17374,7.901362 13.506692,5.002066 z"
         id="path4763" /><path
         style="fill:#818181;fill-opacity:1;stroke-width:2.11667"
         d="M 5.1954579,62.537877 C -2.1530005,55.189418 -2.7287898,14.623333 4.3869646,5.5771173 10.95399,-2.7715031 54.286517,-3.0559081 62.53788,5.1954544 c 7.941981,7.9419816 7.941981,49.4004396 0,57.3424226 -7.941982,7.94198 -49.400441,7.94198 -57.3424221,0 z M 31.750002,59.194028 c 2.775758,-1.857334 2.709219,-2.481463 -0.529167,-4.963435 -2.037291,-1.561424 -3.704166,-3.61145 -3.704166,-4.555608 0,-0.944158 -1.584543,-3.467553 -3.521206,-5.607541 -3.178919,-3.512665 -3.588422,-7.795738 -2.296744,-24.022065 0.09582,-1.203848 3.324536,-1.811756 7.212084,-1.357906 3.871218,0.451943 6.513753,1.670897 5.872302,2.708787 -1.964495,3.17862 1.692008,2.098133 5.954775,-1.759619 3.880561,-3.511858 3.977486,-3.439259 2.621473,1.963526 -1.200457,4.783004 -0.443615,6.108958 5.132954,8.992713 9.943838,5.142158 5.975276,13.857118 -6.310164,13.857118 -5.596805,0 -6.198808,0.675722 -6.198808,6.957898 0,9.493364 6.639069,9.856336 15.818963,0.864855 11.284178,-11.052573 13.113067,-31.06752 2.53196,-27.709208 -4.027802,1.278376 -4.22505,1.044236 -1.691771,-2.008177 2.462266,-2.966847 2.310316,-3.664676 -1.074932,-4.936648 -2.168404,-0.814755 -5.001416,-2.893961 -6.29558,-4.620456 C 42.718714,9.5920551 37.64436,7.968956 30.162502,8.1652978 20.733651,8.4127336 19.212282,9.2592527 17.961464,14.954191 c -0.713121,3.246815 -3.06838,6.252272 -5.371681,6.854599 -7.3702865,1.927373 -7.6313813,20.500316 -0.266214,18.937041 3.182003,-0.675388 3.255345,2.983234 0.09891,4.93402 -1.52206,0.940685 0.598295,4.041392 5.820833,8.512111 9.273058,7.938143 9.17374,7.901362 13.506692,5.002066 z"
         id="path4761" /><path
         style="fill:#767676;fill-opacity:1;stroke-width:2.11667"
         d="M 5.1954579,62.537877 C -2.1530005,55.189418 -2.7287898,14.623333 4.3869646,5.5771173 10.95399,-2.7715031 54.286517,-3.0559081 62.53788,5.1954544 c 7.941981,7.9419816 7.941981,49.4004396 0,57.3424226 -7.941982,7.94198 -49.400441,7.94198 -57.3424221,0 z M 42.333335,60.801095 c 8.780932,0.156421 19.049999,-14.594387 19.049999,-27.364003 0,-9.239411 -0.749048,-12.270426 -3.032362,-12.270426 -1.6678,0 -3.711403,-2.139469 -4.541344,-4.754375 C 51.967616,10.60862 46.658622,6.4475759 42.924217,7.8806017 41.405414,8.463421 38.815541,7.822183 37.168944,6.4556283 33.373915,3.3060342 16.933336,7.7323866 16.933336,11.903729 c 0,1.521838 -2.832279,5.66436 -6.293954,9.205603 -6.2450275,6.388573 -7.1773292,16.358837 -2.0582177,22.011092 0.9192471,1.014984 1.1676346,3.158109 0.5519723,4.7625 -0.6156623,1.604391 -0.2772546,2.917073 0.7520171,2.917073 1.0292723,0 5.0553663,2.908101 8.9468763,6.462448 5.940006,5.425357 8.138717,6.223305 13.700889,4.97227 3.643979,-0.819599 8.054166,-1.464727 9.800416,-1.43362 z M 30.653346,49.741664 c -1.01281,-2.328333 -3.145156,-5.551756 -4.738547,-7.163161 -4.095257,-4.141559 -2.559397,-20.105592 2.019139,-20.987336 1.955048,-0.376508 3.766809,0.931274 4.166758,3.007688 0.662474,3.439368 0.934408,3.447081 4.260614,0.120841 4.347405,-4.34746 6.826028,-4.598232 5.265968,-0.532778 -0.637438,1.661135 0.213155,4.159013 1.890207,5.550842 5.96392,4.949613 3.871279,14.712246 -3.1536,14.712246 -4.774548,0 -6.394622,1.096599 -7.035925,4.7625 -0.804558,4.599104 -0.896319,4.617258 -2.674614,0.529167 z M 50.800001,34.924998 c 0,-0.582083 0.47625,-1.058333 1.058333,-1.058333 0.582084,0 1.058334,0.47625 1.058334,1.058333 0,0.582084 -0.47625,1.058334 -1.058334,1.058334 -0.582083,0 -1.058333,-0.47625 -1.058333,-1.058334 z"
         id="path4759" /><path
         style="fill:#6b6b6b;fill-opacity:1;stroke-width:2.11667"
         d="M 5.1954579,62.537877 C -2.1530005,55.189418 -2.7287898,14.623333 4.3869646,5.5771173 10.95399,-2.7715031 54.286517,-3.0559081 62.53788,5.1954544 c 7.941981,7.9419816 7.941981,49.4004396 0,57.3424226 -7.941982,7.94198 -49.400441,7.94198 -57.3424221,0 z M 42.333335,60.801095 c 8.780932,0.156421 19.049999,-14.594387 19.049999,-27.364003 0,-9.239411 -0.749048,-12.270426 -3.032362,-12.270426 -1.6678,0 -3.711403,-2.139469 -4.541344,-4.754375 C 51.967616,10.60862 46.658622,6.4475759 42.924217,7.8806017 41.405414,8.463421 38.815541,7.822183 37.168944,6.4556283 33.373915,3.3060342 16.933336,7.7323866 16.933336,11.903729 c 0,1.521838 -2.832279,5.66436 -6.293954,9.205603 -6.2450275,6.388573 -7.1773292,16.358837 -2.0582177,22.011092 0.9192471,1.014984 1.1676346,3.158109 0.5519723,4.7625 -0.6156623,1.604391 -0.2772546,2.917073 0.7520171,2.917073 1.0292723,0 5.0553663,2.908101 8.9468763,6.462448 5.940006,5.425357 8.138717,6.223305 13.700889,4.97227 3.643979,-0.819599 8.054166,-1.464727 9.800416,-1.43362 z M 30.653346,49.741664 c -1.01281,-2.328333 -3.145156,-5.551756 -4.738547,-7.163161 -4.095257,-4.141559 -2.559397,-20.105592 2.019139,-20.987336 1.955048,-0.376508 3.766809,0.931274 4.166758,3.007688 0.662474,3.439368 0.934408,3.447081 4.260614,0.120841 4.347405,-4.34746 6.826028,-4.598232 5.265968,-0.532778 -0.637438,1.661135 0.213155,4.159013 1.890207,5.550842 5.96392,4.949613 3.871279,14.712246 -3.1536,14.712246 -4.774548,0 -6.394622,1.096599 -7.035925,4.7625 -0.804558,4.599104 -0.896319,4.617258 -2.674614,0.529167 z M 50.800001,34.924998 c 0,-0.582083 0.47625,-1.058333 1.058333,-1.058333 0.582084,0 1.058334,0.47625 1.058334,1.058333 0,0.582084 -0.47625,1.058334 -1.058334,1.058334 -0.582083,0 -1.058333,-0.47625 -1.058333,-1.058334 z"
         id="path4757" /><path
         style="fill:#606060;fill-opacity:1;stroke-width:2.11667"
         d="M 5.1954579,62.537877 C -2.1530005,55.189418 -2.7287898,14.623333 4.3869646,5.5771173 10.95399,-2.7715031 54.286517,-3.0559081 62.53788,5.1954544 c 7.941981,7.9419816 7.941981,49.4004396 0,57.3424226 -7.941982,7.94198 -49.400441,7.94198 -57.3424221,0 z M 42.333335,60.801095 c 8.780932,0.156421 19.049999,-14.594387 19.049999,-27.364003 0,-9.239411 -0.749048,-12.270426 -3.032362,-12.270426 -1.6678,0 -3.711403,-2.139469 -4.541344,-4.754375 C 51.967616,10.60862 46.658622,6.4475759 42.924217,7.8806017 41.405414,8.463421 38.815541,7.822183 37.168944,6.4556283 33.373915,3.3060342 16.933336,7.7323866 16.933336,11.903729 c 0,1.521838 -2.832279,5.66436 -6.293954,9.205603 -6.2450275,6.388573 -7.1773292,16.358837 -2.0582177,22.011092 0.9192471,1.014984 1.1676346,3.158109 0.5519723,4.7625 -0.6156623,1.604391 -0.2772546,2.917073 0.7520171,2.917073 1.0292723,0 5.0553663,2.908101 8.9468763,6.462448 5.940006,5.425357 8.138717,6.223305 13.700889,4.97227 3.643979,-0.819599 8.054166,-1.464727 9.800416,-1.43362 z M 30.653346,49.741664 c -1.01281,-2.328333 -3.145156,-5.551756 -4.738547,-7.163161 -4.095257,-4.141559 -2.559397,-20.105592 2.019139,-20.987336 1.955048,-0.376508 3.766809,0.931274 4.166758,3.007688 0.662474,3.439368 0.934408,3.447081 4.260614,0.120841 4.347405,-4.34746 6.826028,-4.598232 5.265968,-0.532778 -0.637438,1.661135 0.213155,4.159013 1.890207,5.550842 5.96392,4.949613 3.871279,14.712246 -3.1536,14.712246 -4.774548,0 -6.394622,1.096599 -7.035925,4.7625 -0.804558,4.599104 -0.896319,4.617258 -2.674614,0.529167 z M 50.800001,34.924998 c 0,-0.582083 0.47625,-1.058333 1.058333,-1.058333 0.582084,0 1.058334,0.47625 1.058334,1.058333 0,0.582084 -0.47625,1.058334 -1.058334,1.058334 -0.582083,0 -1.058333,-0.47625 -1.058333,-1.058334 z"
         id="path4755" /><path
         style="fill:#545454;fill-opacity:1;stroke-width:2.11667"
         d="M 5.1954579,62.537877 C -2.1530005,55.189418 -2.7287898,14.623333 4.3869646,5.5771173 10.95399,-2.7715031 54.286517,-3.0559081 62.53788,5.1954544 c 7.941981,7.9419816 7.941981,49.4004396 0,57.3424226 -7.941982,7.94198 -49.400441,7.94198 -57.3424221,0 z M 42.333335,60.801095 c 8.780932,0.156421 19.049999,-14.594387 19.049999,-27.364003 0,-9.239411 -0.749048,-12.270426 -3.032362,-12.270426 -1.6678,0 -3.711403,-2.139469 -4.541344,-4.754375 C 51.967616,10.60862 46.658622,6.4475759 42.924217,7.8806017 41.405414,8.463421 38.815541,7.822183 37.168944,6.4556283 33.373915,3.3060342 16.933336,7.7323866 16.933336,11.903729 c 0,1.521838 -2.832279,5.66436 -6.293954,9.205603 -6.2450275,6.388573 -7.1773292,16.358837 -2.0582177,22.011092 0.9192471,1.014984 1.1676346,3.158109 0.5519723,4.7625 -0.6156623,1.604391 -0.2772546,2.917073 0.7520171,2.917073 1.0292723,0 5.0553663,2.908101 8.9468763,6.462448 5.940006,5.425357 8.138717,6.223305 13.700889,4.97227 3.643979,-0.819599 8.054166,-1.464727 9.800416,-1.43362 z M 30.653346,49.741664 c -1.01281,-2.328333 -3.145156,-5.551756 -4.738547,-7.163161 -4.095257,-4.141559 -2.559397,-20.105592 2.019139,-20.987336 1.955048,-0.376508 3.766809,0.931274 4.166758,3.007688 0.662474,3.439368 0.934408,3.447081 4.260614,0.120841 4.347405,-4.34746 6.826028,-4.598232 5.265968,-0.532778 -0.637438,1.661135 0.213155,4.159013 1.890207,5.550842 5.96392,4.949613 3.871279,14.712246 -3.1536,14.712246 -4.774548,0 -6.394622,1.096599 -7.035925,4.7625 -0.804558,4.599104 -0.896319,4.617258 -2.674614,0.529167 z M 50.800001,34.924998 c 0,-0.582083 0.47625,-1.058333 1.058333,-1.058333 0.582084,0 1.058334,0.47625 1.058334,1.058333 0,0.582084 -0.47625,1.058334 -1.058334,1.058334 -0.582083,0 -1.058333,-0.47625 -1.058333,-1.058334 z"
         id="path4753" /><path
         style="fill:#494949;fill-opacity:1;stroke-width:2.11667"
         d="M 5.1954579,62.537877 C -2.1530005,55.189418 -2.7287898,14.623333 4.3869646,5.5771173 10.95399,-2.7715031 54.286517,-3.0559081 62.53788,5.1954544 c 7.941981,7.9419816 7.941981,49.4004396 0,57.3424226 -7.941982,7.94198 -49.400441,7.94198 -57.3424221,0 z M 42.333335,60.801095 c 8.780932,0.156421 19.049999,-14.594387 19.049999,-27.364003 0,-9.239411 -0.749048,-12.270426 -3.032362,-12.270426 -1.6678,0 -3.711403,-2.139469 -4.541344,-4.754375 C 51.967616,10.60862 46.658622,6.4475759 42.924217,7.8806017 41.405414,8.463421 38.815541,7.822183 37.168944,6.4556283 33.373915,3.3060342 16.933336,7.7323866 16.933336,11.903729 c 0,1.521838 -2.832279,5.66436 -6.293954,9.205603 -6.2450275,6.388573 -7.1773292,16.358837 -2.0582177,22.011092 0.9192471,1.014984 1.1676346,3.158109 0.5519723,4.7625 -0.6156623,1.604391 -0.2772546,2.917073 0.7520171,2.917073 1.0292723,0 5.0553663,2.908101 8.9468763,6.462448 5.940006,5.425357 8.138717,6.223305 13.700889,4.97227 3.643979,-0.819599 8.054166,-1.464727 9.800416,-1.43362 z M 30.653346,49.741664 c -1.01281,-2.328333 -3.145156,-5.551756 -4.738547,-7.163161 -4.095257,-4.141559 -2.559397,-20.105592 2.019139,-20.987336 1.955048,-0.376508 3.766809,0.931274 4.166758,3.007688 0.662474,3.439368 0.934408,3.447081 4.260614,0.120841 4.347405,-4.34746 6.826028,-4.598232 5.265968,-0.532778 -0.637438,1.661135 0.213155,4.159013 1.890207,5.550842 5.96392,4.949613 3.871279,14.712246 -3.1536,14.712246 -4.774548,0 -6.394622,1.096599 -7.035925,4.7625 -0.804558,4.599104 -0.896319,4.617258 -2.674614,0.529167 z M 50.800001,34.924998 c 0,-0.582083 0.47625,-1.058333 1.058333,-1.058333 0.582084,0 1.058334,0.47625 1.058334,1.058333 0,0.582084 -0.47625,1.058334 -1.058334,1.058334 -0.582083,0 -1.058333,-0.47625 -1.058333,-1.058334 z"
         id="path4751" /><path
         style="fill:#3e3e3e;fill-opacity:1;stroke-width:2.11667"
         d="M 5.1954579,62.537877 C -2.1530005,55.189418 -2.7287898,14.623333 4.3869646,5.5771173 10.95399,-2.7715031 54.286517,-3.0559081 62.53788,5.1954544 c 7.941981,7.9419816 7.941981,49.4004396 0,57.3424226 -7.941982,7.94198 -49.400441,7.94198 -57.3424221,0 z M 42.333335,60.801095 c 8.780932,0.156421 19.049999,-14.594387 19.049999,-27.364003 0,-9.239411 -0.749048,-12.270426 -3.032362,-12.270426 -1.6678,0 -3.711403,-2.139469 -4.541344,-4.754375 C 51.967616,10.60862 46.658622,6.4475759 42.924217,7.8806017 41.405414,8.463421 38.815541,7.822183 37.168944,6.4556283 33.373915,3.3060342 16.933336,7.7323866 16.933336,11.903729 c 0,1.521838 -2.832279,5.66436 -6.293954,9.205603 -6.2450275,6.388573 -7.1773292,16.358837 -2.0582177,22.011092 0.9192471,1.014984 1.1676346,3.158109 0.5519723,4.7625 -0.6156623,1.604391 -0.2772546,2.917073 0.7520171,2.917073 1.0292723,0 5.0553663,2.908101 8.9468763,6.462448 5.940006,5.425357 8.138717,6.223305 13.700889,4.97227 3.643979,-0.819599 8.054166,-1.464727 9.800416,-1.43362 z M 30.653346,49.741664 c -1.01281,-2.328333 -3.145156,-5.551756 -4.738547,-7.163161 -4.095257,-4.141559 -2.559397,-20.105592 2.019139,-20.987336 1.955048,-0.376508 3.766809,0.931274 4.166758,3.007688 0.662474,3.439368 0.934408,3.447081 4.260614,0.120841 4.347405,-4.34746 6.826028,-4.598232 5.265968,-0.532778 -0.637438,1.661135 0.213155,4.159013 1.890207,5.550842 5.96392,4.949613 3.871279,14.712246 -3.1536,14.712246 -4.774548,0 -6.394622,1.096599 -7.035925,4.7625 -0.804558,4.599104 -0.896319,4.617258 -2.674614,0.529167 z M 50.800001,34.924998 c 0,-0.582083 0.47625,-1.058333 1.058333,-1.058333 0.582084,0 1.058334,0.47625 1.058334,1.058333 0,0.582084 -0.47625,1.058334 -1.058334,1.058334 -0.582083,0 -1.058333,-0.47625 -1.058333,-1.058334 z"
         id="path4749" /><path
         style="fill:#333333;fill-opacity:1;stroke-width:2.11667"
         d="M 5.1954579,62.537877 C -2.1530005,55.189418 -2.7287898,14.623333 4.3869646,5.5771173 10.95399,-2.7715031 54.286517,-3.0559081 62.53788,5.1954544 c 7.941981,7.9419816 7.941981,49.4004396 0,57.3424226 -7.941982,7.94198 -49.400441,7.94198 -57.3424221,0 z M 42.333335,60.801095 c 8.780932,0.156421 19.049999,-14.594387 19.049999,-27.364003 0,-9.239411 -0.749048,-12.270426 -3.032362,-12.270426 -1.6678,0 -3.711403,-2.139469 -4.541344,-4.754375 C 51.967616,10.60862 46.658622,6.4475759 42.924217,7.8806017 41.405414,8.463421 38.815541,7.822183 37.168944,6.4556283 33.373915,3.3060342 16.933336,7.7323866 16.933336,11.903729 c 0,1.521838 -2.832279,5.66436 -6.293954,9.205603 -6.2450275,6.388573 -7.1773292,16.358837 -2.0582177,22.011092 0.9192471,1.014984 1.1676346,3.158109 0.5519723,4.7625 -0.6156623,1.604391 -0.2772546,2.917073 0.7520171,2.917073 1.0292723,0 5.0553663,2.908101 8.9468763,6.462448 5.940006,5.425357 8.138717,6.223305 13.700889,4.97227 3.643979,-0.819599 8.054166,-1.464727 9.800416,-1.43362 z M 30.653346,49.741664 c -1.01281,-2.328333 -3.145156,-5.551756 -4.738547,-7.163161 -4.095257,-4.141559 -2.559397,-20.105592 2.019139,-20.987336 1.955048,-0.376508 3.766809,0.931274 4.166758,3.007688 0.662474,3.439368 0.934408,3.447081 4.260614,0.120841 4.347405,-4.34746 6.826028,-4.598232 5.265968,-0.532778 -0.637438,1.661135 0.213155,4.159013 1.890207,5.550842 5.96392,4.949613 3.871279,14.712246 -3.1536,14.712246 -4.774548,0 -6.394622,1.096599 -7.035925,4.7625 -0.804558,4.599104 -0.896319,4.617258 -2.674614,0.529167 z M 50.800001,34.924998 c 0,-0.582083 0.47625,-1.058333 1.058333,-1.058333 0.582084,0 1.058334,0.47625 1.058334,1.058333 0,0.582084 -0.47625,1.058334 -1.058334,1.058334 -0.582083,0 -1.058333,-0.47625 -1.058333,-1.058334 z"
         id="path4747" /></g></g></svg>
