<?xml version="1.0" encoding="UTF-8" standalone="no"?>
<!-- Created with Inkscape (http://www.inkscape.org/) -->

<svg
   version="1.1"
   id="svg83"
   width="32"
   height="32"
   viewBox="0 0 32 32"
   sodipodi:docname="sheep4.svg"
   inkscape:version="1.2.2 (b0a8486541, 2022-12-01)"
   xmlns:inkscape="http://www.inkscape.org/namespaces/inkscape"
   xmlns:sodipodi="http://sodipodi.sourceforge.net/DTD/sodipodi-0.dtd"
   xmlns="http://www.w3.org/2000/svg"
   xmlns:svg="http://www.w3.org/2000/svg">
  <defs
     id="defs87" />
  <sodipodi:namedview
     id="namedview85"
     pagecolor="#505050"
     bordercolor="#ffffff"
     borderopacity="1"
     inkscape:showpageshadow="0"
     inkscape:pageopacity="0"
     inkscape:pagecheckerboard="1"
     inkscape:deskcolor="#505050"
     showgrid="false"
     inkscape:zoom="0.921875"
     inkscape:cx="412.74576"
     inkscape:cy="266.84746"
     inkscape:window-width="1920"
     inkscape:window-height="1056"
     inkscape:window-x="0"
     inkscape:window-y="0"
     inkscape:window-maximized="1"
     inkscape:current-layer="g89" />
  <g
     inkscape:groupmode="layer"
     inkscape:label="Image"
     id="g89">
    <g
       id="g1657"
       transform="scale(0.0625)">
      <path
         style="fill:#d5e5cc"
         d="M 0,256 V 0 H 256 512 V 256 512 H 256 0 Z"
         id="path1661" />
      <path
         style="fill:#2c8d24"
         d="m 0,485 v -27 h 256 256 v 27 27 H 256 0 Z m 0,-35.82448 c 0,-1.82186 5.1180746,-1.88743 188.16752,-2.41069 C 413.01818,446.12208 512,446.68107 512,448.59364 c 0,0.9704 -3.17413,1.37832 -12.75,1.63856 -7.0125,0.19058 -122.2125,0.45217 -256,0.58132 C 6.0900304,451.04245 0,451.00144 0,449.17552 Z M 223.75,437.32043 0,436.9956 V 218.4978 0 H 256 512 V 218.5 437 l -19.75,0.004 c -10.8625,0.002 -25.375,0.14741 -32.25,0.32262 -6.875,0.17522 -113.1875,0.1724 -236.25,-0.006 z m -85.46528,-4.3826 c 4.88823,-1.35746 9.37217,-7.3658 10.27663,-13.77037 1.38009,-9.77258 14.51268,-74.43727 15.48702,-76.25784 1.06709,-1.99387 3.43934,-2.54754 4.38176,-1.02268 0.30148,0.48782 1.69652,12.30032 3.10009,26.25 1.40356,13.94968 3.20411,31.21306 4.00123,38.36306 0.79711,7.15 1.45363,13.28872 1.45892,13.64159 0.005,0.35288 -1.17061,0.93781 -2.61312,1.29986 -2.38303,0.59811 -2.56876,0.991 -2.032,4.29863 1.09091,6.72251 2.98229,7.61339 17.16599,8.08559 14.69397,0.48918 21.05579,-0.78131 22.77186,-4.54767 0.80437,-1.7654 0.766,-6.20537 -0.14343,-16.59415 -1.84905,-21.1225 -6.00898,-65.5706 -6.59195,-70.43385 L 205.03826,338 h 20.93542 20.93541 l 2.5,2.5 2.5,2.5 h 21.81216 21.81215 l 15.2333,15.0952 c 17.25651,17.10007 16.03453,14.32355 14.13451,32.11558 -1.23375,11.553 -1.62596,12.24037 -10.90121,19.10518 -7.1791,5.31341 -7.73124,6.146 -8.51324,12.8373 -1.26836,10.85301 1.5967,12.19033 25.04142,11.68857 22.652,-0.4848 21.80219,0.46179 24.99544,-27.84183 2.80953,-24.90236 6.50165,-54.44456 6.96752,-55.75 0.33856,-0.94868 5.75695,-1.25 22.47748,-1.25 19.75863,0 22.21191,0.18274 23.78138,1.77145 0.9625,0.9743 6.6054,7.48987 12.53977,14.47906 l 10.78978,12.7076 1.93595,8.77095 c 1.06477,4.82402 2.39687,10.34297 2.96023,12.26434 1.97402,6.73263 1.40183,8.46904 -4.8514,14.72227 -8.86837,8.86837 -9.06628,15.3215 -0.57867,18.86786 4.84257,2.02335 38.09878,2.0097 42.95087,-0.0176 6.12507,-2.55922 5.98441,-7.76553 -0.67722,-25.0659 l -4.23562,-11 -0.54185,-17.5 -0.54184,-17.5 -4.75,-7.83263 c -2.6125,-4.30794 -4.75,-7.98856 -4.75,-8.17914 0,-0.60856 -11.93235,-18.39072 -16.54815,-24.66084 L 438,314.77998 v -32.74916 -32.74916 l 3.45438,-7.47655 c 1.89991,-4.1121 4.57255,-12.16297 5.93921,-17.89083 2.71961,-11.39827 4.9129,-26.60935 4.04037,-28.02113 -0.86097,-1.39309 -7.12174,-1.05044 -11.0882,0.60685 -1.97451,0.825 -4.09755,1.49983 -4.71788,1.49962 -0.62034,-2.1e-4 -3.82788,-2.52628 -7.12788,-5.61348 -31.10585,-29.1 -35.21348,-32.445 -43.5952,-35.50112 -3.22849,-1.17717 -8.57991,-4.4014 -12.09722,-7.28858 -3.46917,-2.84766 -7.42021,-5.94681 -8.78009,-6.887 C 361.75851,141.14071 356.32252,141 297.98894,141 c -70.96203,0 -63.48654,0.72003 -76.83477,-7.40062 -4.92465,-2.99601 -9.17978,-4.49919 -19,-6.71198 C 195.19438,125.31914 186.575,123.74607 183,123.39167 l -6.5,-0.64435 -5.41385,-6.89485 C 164.5099,107.47723 149.48213,92.510408 142.06275,86.946777 123.66675,73.152012 103.99427,66 84.446099,66 72.08686,66 66.235213,67.038176 56.4025,70.975386 48.155677,74.277574 41.836599,78.280288 35.141786,84.442631 29.11102,89.993743 25.663319,95.336805 22.995558,103.26621 c -2.197008,6.53018 -2.482044,6.8758 -8.171205,9.90809 -11.9466383,6.36749 -13.3906513,10.26198 -12.6361941,34.07963 0.4959701,15.65741 1.333233,17.80206 9.0039181,23.06354 8.939891,6.13206 15.487678,7.96352 30.787868,8.61157 L 55.45989,179.5 61.729945,187.27733 68,195.05465 v 29.97268 C 68,241.5123 68.28981,255 68.644023,255 c 0.354213,0 2.135481,-1.6875 3.958373,-3.75 l 3.314351,-3.75 0.04163,17.58333 c 0.0229,9.67084 0.292684,17.83439 0.599532,18.14124 C 77.560461,284.22713 81,282.80147 81,281.38337 c 0,-3.33857 1.785747,-0.96317 2.345384,3.11983 0.852749,6.22148 3.391333,10.73536 11.039829,19.63003 C 102.34469,313.38954 104,314.3081 104,309.46862 104,306.68531 104.38888,306 105.96826,306 c 1.83003,0 1.98806,0.82524 2.25,11.75 l 0.28174,11.75 4.25,0.3075 c 2.3375,0.16912 4.25,0.65676 4.25,1.08363 0,0.42688 1.11895,9.7385 2.48656,20.6925 2.8467,22.80094 3.06326,31.15807 1.05318,40.64306 -2.51159,11.85154 -7.00471,19.07763 -14.17811,22.80207 -7.239767,3.75891 -10.057994,8.33121 -8.341274,13.53292 1.505903,4.56293 3.712294,5.04902 23.979644,5.28291 6.875,0.0793 14.20312,-0.3287 16.28472,-0.90676 z M 190.75,423.23217 c -1.37649,-0.29796 -1.75,-1.42269 -1.75,-5.26965 0,-5.16033 -0.24698,-7.72882 -5.0921,-52.95552 -2.56354,-23.92936 -3.34868,-28.769 -4.90204,-30.21617 -1.01729,-0.94775 -2.14009,-2.6384 -2.49512,-3.757 C 175.91339,329.15174 175.04772,329 164.90786,329 c -10.7244,0 -10.97727,0.0524 -11.89398,2.46348 -0.9262,2.4361 -5.16735,21.89614 -7.09106,32.53652 -5.51742,30.51785 -10.40046,53.25628 -12.00237,55.89042 -1.80193,2.96303 -2.19529,3.10958 -8.34673,3.10958 -3.55063,0 -6.68444,-0.37013 -6.96403,-0.82252 -0.27959,-0.45238 1.52373,-2.73477 4.00737,-5.07197 4.8369,-4.5517 7.40739,-9.55206 9.94549,-19.3469 3.47213,-13.39939 2.67784,-31.51844 -2.74443,-62.60475 -2.12721,-12.19547 -2.1938,-12.36537 -5.4564,-13.92119 L 121.05881,319.65762 120.7794,307.57881 120.5,295.5 113.25,295.20619 106,294.91238 v -4.41522 -4.41523 l 19.65059,-0.29096 19.65059,-0.29097 6.84941,6.34363 6.84941,6.34364 0.0153,12.65636 c 0.0161,13.34113 0.5539,15.57781 3.60452,14.99227 1.72003,-0.33014 1.90385,-1.58062 2.15813,-14.6814 l 0.27797,-14.32053 -10.52797,-10.51522 C 148.73758,280.53539 144,275.34049 144,274.77454 c 0,-0.65712 -1.89735,-0.79433 -5.25,-0.37967 -2.8875,0.35713 -8.5644,0.92689 -12.61534,1.26614 l -7.36533,0.61681 -3.38017,-3.68965 -3.38016,-3.68965 -4.2545,3.29038 c -2.33998,1.80971 -4.44306,3.40861 -4.67353,3.5531 -0.23046,0.1445 -0.51297,3.29916 -0.62781,7.01036 C 102.12448,293.37496 102.05131,294 101.13656,294 99.717134,294 95.315833,283.02767 93.550442,275.08799 92.644007,271.01138 91.024343,265.74857 89.951189,263.39285 88.27328,259.70961 88,256.84479 88,242.93829 v -16.17144 l -2.25,0.48798 c -1.2375,0.26839 -3.0375,0.81899 -4,1.22356 -1.632427,0.68617 -1.750652,-0.59849 -1.759706,-19.1214 L 79.980588,189.5 76.44509,185.05215 c -1.944523,-2.44632 -5.427655,-6.67319 -7.740294,-9.39304 -2.312638,-2.71985 -4.792813,-5.78081 -5.5115,-6.80215 C 62.02257,167.19324 60.378782,167 47.397058,167 H 32.907523 l -7.703761,-3.59252 c -11.768479,-5.48804 -11.205503,-4.44123 -11.19298,-20.81247 l 0.01078,-14.09501 7.451468,-3.91216 7.451469,-3.91216 3.841499,2.66216 c 5.214501,3.61365 6.320531,3.35324 2.329717,-0.54852 -2.9054,-2.84056 -3.21416,-3.64716 -2.678469,-6.99719 1.86307,-11.651 10.896945,-23.050329 23.464719,-29.608787 8.798487,-4.591467 10.351424,-4.991554 9.911869,-2.553617 -0.201112,1.115438 0.962383,2.070839 3.687001,3.02757 4.661027,1.636689 9.804896,6.317727 11.980548,10.902574 C 84.86106,104.72415 82.087236,116.5 77,116.5 c -2.172797,0 -2.463669,-0.39264 -2.222415,-3 0.784236,-8.47565 0.206677,-9.45785 -5.577245,-9.48469 -7.541898,-0.035 -11.939648,4.92567 -10.793835,12.17546 1.603738,10.14716 9.923329,16.80989 21.954209,17.58198 9.489161,0.60898 13.592127,-1.00735 20.835086,-8.20782 5.04908,-5.01947 7.10375,-10.23101 7.60031,-19.27776 0.50979,-9.287796 -0.90817,-14.239753 -5.8639,-20.478532 C 101.31949,83.778389 100,81.830135 100,81.479183 c 0,-0.708612 5.5706,0.35484 7.96718,1.520971 0.84305,0.410213 4.63792,2.205799 8.43303,3.990189 16.11894,7.578809 29.81794,18.934137 43.24184,35.843867 4.22029,5.31619 8.27133,10.16103 9.00232,10.76632 0.73098,0.60529 5.14327,1.3697 9.80508,1.69869 4.6618,0.32899 10.18028,1.05121 12.26328,1.60493 2.083,0.55372 7.00288,1.73879 10.93308,2.63349 4.35109,0.99052 9.63093,3.1506 13.5,5.52311 3.4948,2.143 8.60419,5.02662 11.35419,6.40804 l 5,2.51167 62.30737,0.01 62.30737,0.01 6.69263,4.62307 c 3.68095,2.54269 7.81926,5.67067 9.19625,6.95105 1.377,1.28039 5.38085,3.22347 8.89745,4.31796 4.36354,1.35809 7.61715,3.18453 10.24638,5.7519 L 395,179.4059 v 48.73803 c 0,37.89229 0.27816,48.91807 1.25,49.54705 0.6875,0.44496 -14.81741,1.03402 -34.45536,1.30902 l -35.70536,0.5 -7.99942,8.5 -7.99941,8.5 -0.0452,10.67857 c -0.0466,11.00125 -0.46494,12.27805 -4.82186,14.71631 -1.1465,0.64161 -1.67791,2.24201 -1.67791,5.05327 0,3.35302 0.55089,4.56442 2.97728,6.5471 3.73534,3.05227 7.77526,3.17464 10.43831,0.31619 2.65074,-2.84523 2.6898,-8.71432 0.0801,-12.03204 -1.61196,-2.04927 -1.99391,-4.27043 -2.15661,-12.5415 l -0.19773,-10.05118 7.14988,-7.09336 L 328.98658,285 h 33.50674 c 18.4287,0 33.84423,0 34.25673,0 0.4125,0 0.75,0.7875 0.75,1.75 0,1.61286 -1.95912,1.77098 -25,2.01768 l -25,0.26768 -10.25,10.21445 -10.25,10.21446 V 328.23213 347 h 3 3 v -17.77208 -17.77208 l 8.25311,-8.21023 8.2531,-8.21023 25.4969,-0.26769 L 400.5,294.5 l 0.25861,-54.25 c 0.14224,-29.8375 0.51651,-54.25 0.83171,-54.25 0.3152,0 2.56507,1.63228 4.99972,3.62729 l 4.42663,3.6273 -0.25833,55.6227 L 410.5,304.5 l -25.63799,0.26666 -25.638,0.26665 -3.862,4.2868 C 344.30817,321.58979 345,320.37778 345,327.47335 V 334 h 3 c 2.92796,0 3,-0.11847 3,-4.93377 0,-4.43181 0.51561,-5.57638 5.06797,-11.25 L 361.13594,311.5 388.81797,311 416.5,310.5 l 0.22575,-54.89241 c 0.12416,-30.19083 0.45078,-55.11746 0.72583,-55.3925 0.80121,-0.80121 3.56202,1.88872 7.73223,7.53372 4.69431,6.35446 7.38695,6.83073 11.31373,2.00119 l 2.64249,-3.25 -0.63995,3.5 c -1.77559,9.711 -5.44452,18.45513 -10.20721,24.32673 L 426,237.15345 v 41.78842 41.78841 l 2.25,2.85871 c 6.2126,7.89335 21.24796,30.58399 25.36129,38.27404 l 3.55005,6.63697 -0.57935,15.5 -0.57936,15.5 4.86453,11 c 3.40097,7.69049 4.56719,11.37608 3.87624,12.25 -1.03437,1.30828 -23.7434,1.88962 -23.7434,0.60781 0,-0.3532 1.95524,-2.9407 4.34498,-5.75 7.07957,-8.32252 7.0531,-8.1982 4.22627,-19.84861 -1.36909,-5.64256 -3.05461,-13.4092 -3.74559,-17.2592 -1.34747,-7.50781 -2.25543,-8.82095 -25.06472,-36.25 L 413.90045,336 h -30.82778 c -24.67639,0 -31.05158,0.26967 -31.94938,1.35144 -0.61688,0.74329 -1.79456,8.05579 -2.61707,16.25 -0.82252,8.19421 -1.94276,18.27356 -2.48943,22.39856 -0.54668,4.125 -1.67613,14.07566 -2.5099,22.11258 -1.54621,14.90424 -2.87964,23.5935 -3.75491,24.46878 -0.26894,0.26893 -5.38565,0.36065 -11.37048,0.20381 L 317.5,422.5 l 9.1178,-7.22252 c 10.45368,-8.28072 9.5261,-5.86735 11.48319,-29.87671 l 1.23079,-15.09923 -2.91156,-3.90077 c -1.60135,-2.14542 -5.1635,-6.19511 -7.91589,-8.99931 -2.75238,-2.8042 -7.8625,-8.1003 -11.35581,-11.76913 -3.49331,-3.66882 -7.14008,-7.09263 -8.10393,-7.60847 -0.96385,-0.51583 -3.66076,-2.53222 -5.99313,-4.48087 L 298.81077,330 H 277.64274 256.4747 l -1.87742,-2.5 -1.87743,-2.5 H 225.9768 199.23375 l -3.44517,5.78344 c -3.40814,5.72126 -3.43701,5.86908 -2.68495,13.75 0.41812,4.38161 1.7045,18.09156 2.85861,30.46656 1.15412,12.375 2.53475,26.90515 3.06808,32.28922 0.53332,5.38407 0.96968,11.34333 0.96968,13.2428 0,3.35744 -0.1044,3.44837 -3.75,3.26628 -2.0625,-0.10302 -4.5375,-0.35778 -5.5,-0.56613 z m 0.32692,-90.15525 c 2.2452,-2.24519 2.92308,-3.84015 2.92308,-6.87755 0,-2.29514 -0.62941,-4.47685 -1.5,-5.19937 -1.18131,-0.9804 -1.5,-3.8023 -1.5,-13.28202 v -12.03713 l -11.5,-11.5 C 173.175,277.85585 168,272.52766 168,272.34043 168,272.15319 169.575,272 171.5,272 h 3.5 l -0.0153,-6.25 c -0.008,-3.4375 -0.42267,-6.8937 -0.92054,-7.68044 -1.39055,-2.19736 -11.80266,-2.62348 -16.46845,-0.67399 -5.58641,2.33415 -21.23681,2.23872 -23.87339,-0.14557 -1.33653,-1.20864 -3.49607,-1.72641 -6.98093,-1.67373 -4.25918,0.0644 -5.4285,0.52124 -7.501,2.93067 -2.02148,2.3501 -2.35886,3.57305 -1.90965,6.92216 0.77069,5.74595 4.65405,8.97041 9.94823,8.26031 2.15469,-0.28901 4.9149,-1.46235 6.13378,-2.60744 C 135.34436,269.26731 136.87757,269 145.35413,269 h 9.72523 l 14.96032,14.10326 14.96032,14.10327 -0.006,10.64673 -0.006,10.64674 -2.85274,1.62261 c -5.03335,2.8629 -4.82426,9.61655 0.42557,13.74607 3.59291,2.82618 5.03264,2.69234 8.51674,-0.79176 z M 162.75,267.55967 c -4.43789,-3.87177 -4.68822,-5.28609 -1.09522,-6.18787 3.62793,-0.91056 5.78304,0.69884 6.16806,4.60621 0.47561,4.82665 -0.87183,5.24677 -5.07284,1.58166 z m -38,0.36023 c -2.76747,-1.6119 -2.23936,-5.58026 0.84565,-6.35455 4.66988,-1.17207 7.03421,2.64967 3.57561,5.77966 -2.11843,1.91715 -2.11705,1.91697 -4.42126,0.57489 z m 148.06018,57.05447 c 4.4664,-2.7231 6.66146,-8.01526 5.18283,-12.49554 -0.60801,-1.84231 -1.64268,-3.55305 -2.29925,-3.80164 -0.65657,-0.2486 4.30935,-6.01516 11.03538,-12.81459 l 12.22914,-12.3626 0.27086,-18 0.27086,-18 40.33136,-0.5 c 38.27337,-0.47449 40.4028,-0.59777 41.73159,-2.41596 1.15582,-1.58151 1.30506,-7.08015 0.85496,-31.5 -0.29991,-16.27122 -0.73084,-30.51939 -0.95762,-31.6626 -0.50764,-2.55897 -4.36743,-4.42144 -9.163,-4.42144 -3.20454,0 -4.70485,-1.06374 -13.39882,-9.5 l -9.79021,-9.5 -22.30413,0.001 c -12.26727,8.1e-4 -38.84163,0.29881 -59.05413,0.66221 -34.76236,0.62501 -36.75,0.76014 -36.75,2.49853 0,1.76254 2.36949,1.83778 57.8743,1.83778 h 57.8743 l 9.80531,9.95397 c 9.62092,9.76678 9.90066,9.95954 14.8757,10.25 L 376.5,183.5 v 28.5 28.5 l -43,0.5 -43,0.5 -0.34047,2.40962 c -0.20424,1.44551 0.2959,2.76574 1.25,3.29969 1.3575,0.75969 1.58474,3.33631 1.55134,17.59038 L 292.92177,281.5 282.2109,292.609 c -10.56953,10.96242 -10.78015,11.11553 -15.96087,11.60321 l -5.25,0.4942 0.002,-6.1032 0.002,-6.10321 8.99848,-8.94912 8.99849,-8.94913 v -6.97987 c 0,-6.69969 0.1405,-7.10856 3.5,-10.18575 2.54287,-2.32917 3.5,-4.04488 3.5,-6.27395 0,-4.25286 -1.78096,-7.74135 -4.61027,-9.03047 L 279,241.04288 v -20.53013 -20.53013 l -5.25,-5.75304 c -2.8875,-3.16417 -6.45845,-7.21027 -7.93544,-8.99131 L 263.12912,182 h -10.32401 c -9.07098,0 -10.46847,-0.23131 -11.51423,-1.90584 -1.918,-3.07121 -7.80632,-4.55591 -12.49609,-3.15082 l -3.94876,1.18307 -6.67302,-6.45251 C 207.27659,161.13753 197.63597,152.9532 195.5,152.42584 c -1.1,-0.27159 -10.55,-0.366 -21,-0.20982 l -19,0.28398 -0.30109,2.59116 -0.3011,2.59116 20.66578,0.61601 20.66578,0.61601 5.65619,5.29283 c 3.11091,2.91106 8.61415,8.00223 12.22944,11.31372 5.9673,5.46586 6.62263,6.45905 7.10899,10.77399 1.19508,10.60273 12.96866,14.3856 19.22873,6.17822 L 243.10178,189 h 9.22993 9.22993 l 6.21918,7.06743 6.21918,7.06743 -0.0385,18.68257 -0.0385,18.68257 -3.21148,2.01518 c -2.92078,1.83277 -3.23845,2.52837 -3.50943,7.68461 -0.27918,5.31211 -0.10586,5.81145 2.75,7.92288 2.81624,2.08214 3.04795,2.71587 3.04795,8.33624 v 6.08279 l -9.03284,8.97915 -9.03284,8.97915 0.28284,7 c 0.25849,6.39726 0.47658,7.02752 2.53284,7.31955 2.78162,0.39505 2.78655,0.30099 -0.25,4.77559 -4.13176,6.08848 -3.34478,11.0792 2.35815,14.95444 4.37935,2.97585 8.54377,3.11243 12.95203,0.42479 z M 263.75,319.9199 c -2.01024,-1.17086 -2.34868,-5.92122 -0.55,-7.7199 0.66,-0.66 2.37,-1.2 3.8,-1.2 5.08568,0 6.91081,5.54821 2.77749,8.4433 -2.57115,1.8009 -3.61244,1.88324 -6.02749,0.4766 z M 274.36163,251.5 c -0.87531,-2.28102 0.34984,-4.5 2.48454,-4.5 2.42603,0 4.55401,2.51477 3.79709,4.48727 -0.75084,1.95664 -5.53196,1.96634 -6.28163,0.0127 z m -45.9146,-62.55854 c -1.42291,-1.57229 -1.61285,-2.45807 -0.80413,-3.75 1.51748,-2.42417 6.45135,-2.78305 8.05779,-0.58612 1.67169,2.28618 1.63622,2.91489 -0.27212,4.82323 -2.15205,2.15205 -4.75766,1.97026 -6.98154,-0.48711 z M 215.77749,296.4433 c 1.22238,-0.85619 2.22251,-2.43119 2.22251,-3.5 0,-2.80353 2.87791,-2.39463 4.00467,0.56899 1.05724,2.78075 5.05563,5.06228 7.33726,4.18674 1.92788,-0.7398 3.20612,-6.55098 1.75923,-7.99787 C 229.66206,288.26206 229.54778,237 230.98367,237 c 0.61369,0 1.08384,10.04693 1.25,26.71219 l 0.26633,26.71219 2.74137,1.53781 c 2.08711,1.17079 3.16109,1.27314 4.5,0.42882 1.61422,-1.01792 1.75863,-3.56356 1.75863,-31 V 231.5 l -5.29598,-0.30385 c -4.48528,-0.25735 -5.46524,-0.67536 -6.40175,-2.73078 -0.60818,-1.33481 -1.9205,-2.68551 -2.91625,-3.00155 C 224.3489,224.65857 221,226.69053 221,229.03518 221,230.46432 220.31841,231 218.5,231 c -2.44275,0 -2.5,-0.17045 -2.5,-7.4433 0,-6.53438 -0.26854,-7.63139 -2.19918,-8.98365 -1.20954,-0.8472 -7.87988,-7.17272 -14.82297,-14.05671 L 186.35406,188 h -32.84829 c -29.25508,0 -33.04974,-0.18231 -34.68993,-1.66667 -1.15058,-1.04125 -3.54816,-1.66666 -6.38935,-1.66666 -3.60466,0 -5.10539,0.55822 -7.2371,2.69195 -2.41316,2.41547 -2.68874,3.4178 -2.68309,9.75867 0.006,6.56883 0.2125,7.24408 2.93298,9.58414 2.43812,2.09718 3.65412,2.43543 7.28428,2.02626 2.39668,-0.27014 5.18578,-1.24065 6.198,-2.1567 1.63844,-1.48277 4.76033,-1.63291 28.44917,-1.36826 l 26.60878,0.29727 5.07004,5.0717 c 4.74976,4.75132 4.99414,5.23831 3.8684,7.70904 -0.99782,2.18996 -0.91417,3.07608 0.49309,5.22383 3.62573,5.53357 10.66616,5.45673 13.66633,-0.14914 1.89647,-3.54359 -0.30844,-7.13276 -6.41959,-10.44981 -2.62885,-1.42691 -7.1166,-4.90222 -9.97277,-7.72291 l -5.19304,-5.12853 -27.14057,-0.0855 -27.14056,-0.0855 -0.46553,-2.43528 c -0.25605,-1.33941 0.0933,-2.89906 0.77627,-3.4659 1.64842,-1.36807 57.66517,-1.24178 61.29477,0.13819 1.46096,0.55545 3.38685,1.76812 4.27977,2.69482 0.89291,0.92669 6.63657,6.5587 12.76368,12.51556 L 211,220.16132 v 5.36943 5.36944 l -5.75,0.29991 -5.75,0.2999 -0.27307,17.75 c -0.1502,9.7625 -0.65098,17.75 -1.11286,17.75 -0.46188,0 -7.78625,-7.2 -16.27637,-16 l -15.43659,-16 h -5.13317 c -4.23229,0 -5.24311,-0.34642 -5.75966,-1.97391 -1.66975,-5.26093 -9.85742,-7.72388 -14.14124,-4.25385 -4.51483,3.65715 -5.49331,8.51255 -2.67647,13.28108 3.29015,5.56978 11.31809,6.29372 15.19116,1.3699 2.06163,-2.62093 6.69554,-3.25501 10.17586,-1.3924 1.05936,0.56695 8.56054,7.5452 16.6693,15.50721 8.10876,7.96202 15.52144,14.7234 16.47262,15.02529 1.45473,0.46171 1.77477,2.08679 2.01495,10.2312 0.24762,8.3965 0.52447,9.72804 2.08471,10.02669 0.98954,0.18941 2.90204,-0.37825 4.25,-1.26147 L 208,289.95389 V 263.47695 C 208,245.95525 208.34884,237 209.03138,237 c 1.22142,0 0.84738,52.28509 -0.39775,55.60092 -0.5431,1.4463 -0.27509,2.61477 0.86015,3.75 2.05497,2.05497 3.45239,2.07551 6.28371,0.0924 z m 1.88918,-7.10997 C 217.3,288.96667 217,277.04167 217,262.83333 V 237 h 2.5 2.5 v 25.3 c 0,18.34444 -0.32991,25.62991 -1.2,26.5 -1.35945,1.35945 -2.16936,1.49731 -3.13333,0.53333 z m -74.2802,-49.7686 c -0.33119,-0.86306 -0.31294,-2.72157 0.0406,-4.13002 0.52123,-2.07675 1.15597,-2.50165 3.35785,-2.24777 2.3767,0.27404 2.71512,0.74931 2.71512,3.81306 0,3.07658 -0.33337,3.53835 -2.75569,3.81697 -1.79848,0.20687 -2.96485,-0.2281 -3.35784,-1.25224 z m -33.7198,-37.2314 C 109.3,201.96667 109,199.49167 109,196.83333 109,192.34444 109.17816,192 111.5,192 c 2.32604,0 2.5,0.34047 2.5,4.89301 0,3.5393 -0.43762,5.06094 -1.58179,5.5 -1.95858,0.75158 -1.93988,0.75199 -2.75154,-0.0597 z M 310.75,233.478 c 2.4553,-2.82581 2.92021,-7.35718 1.10318,-10.75234 -1.40449,-2.62431 -4.91123,-5.64736 -6.60318,-5.69239 -0.93142,-0.0248 -1.25,-3.21254 -1.25,-12.50759 v -12.47432 l 2.98307,-1.54261 c 6.1154,-3.16239 7.79981,-11.23647 3.42804,-16.43202 C 308.31939,171.59086 307.05849,171 303.84536,171 c -5.26011,0 -7.71535,1.4446 -9.43002,5.54837 -2.02178,4.83881 -1.76378,7.65909 1.08466,11.85649 2.33805,3.44531 2.5,4.49666 2.5,16.22926 0,11.56689 -0.16498,12.67889 -2.11538,14.25823 -1.65402,1.33934 -2.11539,2.8266 -2.11539,6.81909 0,5.97108 0.40142,6.7947 4.58988,9.41742 4.0981,2.56615 9.33277,1.86872 12.39089,-1.65086 z m -10.51168,-3.63968 c -1.87419,-1.87419 -1.486,-4.6354 0.8256,-5.87253 2.77082,-1.48289 5.13857,0.49094 4.73664,3.94861 -0.33618,2.892 -3.49987,3.98629 -5.56224,1.92392 z m -0.1629,-47.24744 C 298.1901,180.31921 299.68817,177 302.59877,177 c 2.81765,0 4.20301,2.504 2.70319,4.88592 -1.38325,2.1968 -3.72615,2.51281 -5.22654,0.70496 z M 329.00869,232.75 c 0.005,-1.7875 0.2957,-5.63985 0.64649,-8.56077 l 0.6378,-5.31078 -4.89649,0.31078 L 320.5,219.5 l -0.33249,6.81384 c -0.4379,8.97389 -0.0849,9.68616 4.80111,9.68616 3.87977,0 4.03171,-0.12222 4.04007,-3.25 z m 18.84361,0.82627 c 2.1626,-2.1626 1.81301,-11.61661 -0.49188,-13.302 -2.39759,-1.75315 -8.45085,-1.59966 -11.13791,0.28243 -4.00827,2.8075 -2.78052,13.02686 1.77749,14.79516 2.36434,0.91726 8.21361,-0.1369 9.8523,-1.77559 z m -7.0398,-2.25938 c 0.72187,-0.28887 1.58438,-0.25335 1.91667,0.0789 0.33229,0.33229 -0.25834,0.56864 -1.3125,0.52522 -1.16495,-0.048 -1.4019,-0.28494 -0.60417,-0.60416 z m 18.41369,-0.56822 0.35271,-3.24867 1.01834,3.5 c 0.77129,2.6509 1.62736,3.57251 3.52873,3.79888 2.46073,0.29296 2.51298,0.15958 2.64096,-6.74225 0.15156,-8.17373 -0.94333,-9.37833 -8.05514,-8.86226 L 354.5,219.5 l -0.29913,6.90079 c -0.37236,8.59024 0.0875,10.05045 2.72103,8.64101 1.16472,-0.62334 2.09379,-2.3543 2.30429,-4.29313 z m -28.43503,-48.94865 c 0.27384,-7.24173 0.14393,-7.79645 -2.18294,-9.32107 -2.80789,-1.8398 -5.79702,-0.86321 -7.5853,2.47823 -1.1585,2.16467 -1.39869,13.33372 -0.31015,14.42225 0.39202,0.39203 2.75452,0.57953 5.25,0.41667 L 330.5,189.5 Z m 16.95884,5.38119 c 0.6875,-0.85991 1.25,-3.92694 1.25,-6.81564 0,-4.29382 -0.40553,-5.53621 -2.22251,-6.80887 -3.24383,-2.27207 -6.14784,-1.91362 -9.19661,1.13515 -2.35296,2.35295 -2.6073,3.20275 -2.02024,6.75 0.36939,2.23198 1.06837,4.81422 1.5533,5.73831 1.54833,2.95058 8.27737,2.95124 10.63606,0.001 z m -8.125,-5.97896 c -0.79065,-1.27929 1.04345,-3.52519 2.2632,-2.77135 1.60541,0.9922 1.36774,3.5691 -0.32918,3.5691 -0.79254,0 -1.66285,-0.35899 -1.93402,-0.79775 z M 80.026897,123.31739 c 0.01479,-0.44957 1.844915,-1.93939 4.066936,-3.31071 2.22202,-1.37133 5.359916,-4.48598 6.973102,-6.92145 C 97.586106,103.24308 92.755361,89.570081 80.5,83.176449 c -4.072743,-2.124753 -4.595287,-2.672421 -2.817685,-2.953158 4.521323,-0.714054 13.199248,5.664067 16.494394,12.123088 1.15268,2.259439 2.286273,6.797282 2.529116,10.124211 0.553104,7.57747 -2.297487,13.72182 -8.205825,17.68738 -4.333586,2.90862 -8.51617,4.46821 -8.473103,3.15942 z"
         id="path1659" />
    </g>
  </g>
</svg>
